<svg width="567" height="565" viewBox="0 0 567 565" fill="none" xmlns="http://www.w3.org/2000/svg">
<mask id="path-1-outside-1_158_7" maskUnits="userSpaceOnUse" x="117.201" y="139.318" width="332.15" height="286.215" fill="black">
<rect fill="white" x="117.201" y="139.318" width="332.15" height="286.215"/>
<path d="M159.121 395.867L159.955 395.861L161.81 397.051L166.422 400.701L175.003 407.555L179.948 410.451C181.323 411.293 184.102 413.022 184.221 413.202C184.34 413.381 185.571 414.57 186.172 415.142C187.62 415.533 190.552 416.313 190.69 416.312C190.861 416.311 194.98 417.183 195.323 417.181L199.876 417.148C200.082 417.146 204.375 416.514 206.496 416.198L212.458 414.952L217.316 412.736L222.51 410.594L225.767 408.089L230.965 402.488L234.517 399.606L236.788 396.658L240.976 390.012L243.259 386.086L244.734 383.369L246.027 379.901L247.353 376.96L248.396 373.419C249.343 371.107 251.226 366.437 251.176 366.257C251.113 366.032 252.439 363.09 252.54 362.939C252.62 362.818 253.385 361.079 253.757 360.224L257.026 356.742L263.169 351.134C264.383 350.449 266.866 349.033 267.09 348.851C267.37 348.623 271.317 346.941 271.41 346.865C271.485 346.804 275.377 345.257 277.314 344.491L281.869 342.729L285.949 341.422L289.852 338.461L296.049 332.327L297.415 329.836L298.93 325.014C298.841 323.912 298.646 321.693 298.583 321.634C298.505 321.559 298.197 320.358 298.133 320.133C298.083 319.953 297.428 319.462 297.107 319.239L295.677 318.948L294.045 318.96C293.553 319.014 292.535 319.121 292.398 319.122C292.226 319.124 290.589 320.038 290.402 320.189C290.253 320.311 289.525 320.947 289.18 321.251L287.31 322.768L285.456 324.134L283.655 324.974L281.353 325.668L278.316 325.99C277.424 326.047 275.604 326.16 275.466 326.161L272.546 326.183L270.701 325.745L267.985 323.735L264.5 320.828L261.791 318.743L260.386 316.498L259.428 314.926L259.949 314.02L275.176 299.175L293.925 281.748L319.835 257.128L340.382 238.034L359.535 220.003L375.121 205.005L384.667 196.29L387.726 194.442L389.508 192.661C390.25 191.828 392.043 190.596 392.186 190.535C392.366 190.458 393.146 190.388 393.434 190.085C393.722 189.783 393.185 188.41 393.443 188.408C393.701 188.406 395.075 188.396 396.551 188.235C398.026 188.074 398.683 188.37 399.027 188.368L401.862 188.347C402.807 188.34 404.376 188.103 404.641 188.026C404.853 187.964 405.617 187.142 405.972 186.738L407.293 184.699C408.137 183.991 409.863 182.53 410.019 182.349C410.174 182.167 411.246 180.962 411.762 180.382C412.051 179.778 412.651 178.541 412.732 178.42C412.833 178.269 414.452 176.678 414.467 176.528C414.479 176.408 415.263 175.135 415.311 174.659L416.525 173.13L418.276 171.088L419.153 170.052L420.19 169.044L423.083 165.114L424.619 164.351C425.686 164.268 427.854 164.102 427.992 164.101C428.129 164.1 430.069 163.935 431.021 163.853L433.49 164.061L434.712 163L437.718 160.422L439.656 158.228L440.133 156.044L439.905 153.189L439.806 151.611L434.724 147.513L433.709 147.37L431.202 147.538L425.973 148.328L421.167 150.017L410.994 155.578L404.502 159.535L399.997 162.499L391.787 166.468L386.267 169.29L378.564 173.33L376.752 175.012L375.397 179.891L364.507 191.464L351.579 203.521L342.133 212.085L333.911 219.587L325.112 227.695L316.198 236.104L307.485 244.211L298.103 253L290.8 259.894L283.31 266.94L272.612 276.866L258.839 288.855L257.366 288.968L256.086 289.066L255.76 289.091L253.097 289.111L251.596 288.67L249.827 287.48L248.074 286.14L246.608 284.497L245.635 283.075L245.223 281.199L245.096 278.193L245.043 276.163L245.979 273.676L246.777 271.715L247.467 269.981L249.278 267.337L250.943 265.295L251.968 263.634L253.898 261.515L255.214 260.377L255.858 259.095L255.972 257.966L256.1 256.687L255.698 255.563L254.962 254.778L254.225 253.994L253.747 253.622L250.655 253.644L247.954 254.04L244.513 254.967L241.673 255.89L238.672 257.565L234.302 260.905L226.461 268.028L222.982 271.888L220.068 276.119L217.34 280.198L215.104 284.499L213.516 288.345L211.518 291.141L205.625 296.822L197.93 303.343L192.852 307.74L187.767 309.656L181.325 312.259L172.573 315.63L165.545 318.087L157.372 321.68L149.786 325.418L142.67 332.161L137.37 337.913L134.4 344.399L132.567 352.382L132.864 359.672L136.436 370.246L142.34 379.826L148.781 386.62L156.87 393.252L158.371 394.444L159.121 395.867Z"/>
</mask>
<path d="M159.121 395.867L159.955 395.861L161.81 397.051L166.422 400.701L175.003 407.555L179.948 410.451C181.323 411.293 184.102 413.022 184.221 413.202C184.34 413.381 185.571 414.57 186.172 415.142C187.62 415.533 190.552 416.313 190.69 416.312C190.861 416.311 194.98 417.183 195.323 417.181L199.876 417.148C200.082 417.146 204.375 416.514 206.496 416.198L212.458 414.952L217.316 412.736L222.51 410.594L225.767 408.089L230.965 402.488L234.517 399.606L236.788 396.658L240.976 390.012L243.259 386.086L244.734 383.369L246.027 379.901L247.353 376.96L248.396 373.419C249.343 371.107 251.226 366.437 251.176 366.257C251.113 366.032 252.439 363.09 252.54 362.939C252.62 362.818 253.385 361.079 253.757 360.224L257.026 356.742L263.169 351.134C264.383 350.449 266.866 349.033 267.09 348.851C267.37 348.623 271.317 346.941 271.41 346.865C271.485 346.804 275.377 345.257 277.314 344.491L281.869 342.729L285.949 341.422L289.852 338.461L296.049 332.327L297.415 329.836L298.93 325.014C298.841 323.912 298.646 321.693 298.583 321.634C298.505 321.559 298.197 320.358 298.133 320.133C298.083 319.953 297.428 319.462 297.107 319.239L295.677 318.948L294.045 318.96C293.553 319.014 292.535 319.121 292.398 319.122C292.226 319.124 290.589 320.038 290.402 320.189C290.253 320.311 289.525 320.947 289.18 321.251L287.31 322.768L285.456 324.134L283.655 324.974L281.353 325.668L278.316 325.99C277.424 326.047 275.604 326.16 275.466 326.161L272.546 326.183L270.701 325.745L267.985 323.735L264.5 320.828L261.791 318.743L260.386 316.498L259.428 314.926L259.949 314.02L275.176 299.175L293.925 281.748L319.835 257.128L340.382 238.034L359.535 220.003L375.121 205.005L384.667 196.29L387.726 194.442L389.508 192.661C390.25 191.828 392.043 190.596 392.186 190.535C392.366 190.458 393.146 190.388 393.434 190.085C393.722 189.783 393.185 188.41 393.443 188.408C393.701 188.406 395.075 188.396 396.551 188.235C398.026 188.074 398.683 188.37 399.027 188.368L401.862 188.347C402.807 188.34 404.376 188.103 404.641 188.026C404.853 187.964 405.617 187.142 405.972 186.738L407.293 184.699C408.137 183.991 409.863 182.53 410.019 182.349C410.174 182.167 411.246 180.962 411.762 180.382C412.051 179.778 412.651 178.541 412.732 178.42C412.833 178.269 414.452 176.678 414.467 176.528C414.479 176.408 415.263 175.135 415.311 174.659L416.525 173.13L418.276 171.088L419.153 170.052L420.19 169.044L423.083 165.114L424.619 164.351C425.686 164.268 427.854 164.102 427.992 164.101C428.129 164.1 430.069 163.935 431.021 163.853L433.49 164.061L434.712 163L437.718 160.422L439.656 158.228L440.133 156.044L439.905 153.189L439.806 151.611L434.724 147.513L433.709 147.37L431.202 147.538L425.973 148.328L421.167 150.017L410.994 155.578L404.502 159.535L399.997 162.499L391.787 166.468L386.267 169.29L378.564 173.33L376.752 175.012L375.397 179.891L364.507 191.464L351.579 203.521L342.133 212.085L333.911 219.587L325.112 227.695L316.198 236.104L307.485 244.211L298.103 253L290.8 259.894L283.31 266.94L272.612 276.866L258.839 288.855L257.366 288.968L256.086 289.066L255.76 289.091L253.097 289.111L251.596 288.67L249.827 287.48L248.074 286.14L246.608 284.497L245.635 283.075L245.223 281.199L245.096 278.193L245.043 276.163L245.979 273.676L246.777 271.715L247.467 269.981L249.278 267.337L250.943 265.295L251.968 263.634L253.898 261.515L255.214 260.377L255.858 259.095L255.972 257.966L256.1 256.687L255.698 255.563L254.962 254.778L254.225 253.994L253.747 253.622L250.655 253.644L247.954 254.04L244.513 254.967L241.673 255.89L238.672 257.565L234.302 260.905L226.461 268.028L222.982 271.888L220.068 276.119L217.34 280.198L215.104 284.499L213.516 288.345L211.518 291.141L205.625 296.822L197.93 303.343L192.852 307.74L187.767 309.656L181.325 312.259L172.573 315.63L165.545 318.087L157.372 321.68L149.786 325.418L142.67 332.161L137.37 337.913L134.4 344.399L132.567 352.382L132.864 359.672L136.436 370.246L142.34 379.826L148.781 386.62L156.87 393.252L158.371 394.444L159.121 395.867Z" fill="#1A1A1A"/>
<path d="M160.477 392.384L160.305 392.386L159.606 399.337L159.778 399.336L160.477 392.384ZM252.191 255.588L252.169 255.814L259.182 255.763L259.205 255.537L252.191 255.588ZM159.955 395.861L164.224 389.913L162.638 388.895L160.654 388.91L159.955 395.861ZM159.121 395.867L152.793 399.574L154.519 402.847L158.422 402.819L159.121 395.867ZM158.371 394.444L164.699 390.737L164.114 389.628L163.134 388.85L158.371 394.444ZM156.87 393.252L152.034 398.789L152.07 398.818L152.106 398.847L156.87 393.252ZM148.781 386.62L143.399 391.648L143.656 391.919L143.945 392.156L148.781 386.62ZM142.34 379.826L136.21 383.881L136.534 384.407L136.958 384.854L142.34 379.826ZM136.436 370.246L129.723 373.057L129.946 373.716L130.306 374.301L136.436 370.246ZM132.864 359.672L125.821 360.686L125.859 361.619L126.151 362.483L132.864 359.672ZM132.567 352.382L125.699 351.549L125.487 352.474L125.524 353.396L132.567 352.382ZM134.4 344.399L128.025 342.12L127.702 342.825L127.532 343.566L134.4 344.399ZM137.37 337.913L132.387 333.547L131.519 334.49L130.995 335.633L137.37 337.913ZM142.67 332.161L138.077 327.4L137.875 327.591L137.687 327.795L142.67 332.161ZM149.786 325.418L147.194 319.263L146.092 319.806L145.193 320.658L149.786 325.418ZM157.372 321.68L155.096 315.377L154.937 315.447L154.78 315.524L157.372 321.68ZM165.545 318.087L163.84 311.559L163.551 311.66L163.269 311.784L165.545 318.087ZM172.573 315.63L174.279 322.158L174.395 322.118L174.51 322.073L172.573 315.63ZM181.325 312.259L183.261 318.702L183.321 318.679L183.38 318.655L181.325 312.259ZM187.767 309.656L185.884 303.193L185.797 303.226L185.711 303.261L187.767 309.656ZM192.852 307.74L194.735 314.204L196.075 313.699L197.173 312.747L192.852 307.74ZM197.93 303.343L193.675 298.279L193.642 298.307L193.609 298.336L197.93 303.343ZM205.625 296.822L209.879 301.886L210.08 301.716L210.269 301.534L205.625 296.822ZM211.518 291.141L216.162 295.853L216.702 295.332L217.136 294.725L211.518 291.141ZM213.516 288.345L219.134 291.929L219.664 291.187L220.006 290.359L213.516 288.345ZM215.104 284.499L208.9 281.871L208.743 282.173L208.614 282.486L215.104 284.499ZM217.34 280.198L211.58 276.819L211.336 277.184L211.135 277.57L217.34 280.198ZM220.068 276.119L214.37 272.648L214.339 272.693L214.308 272.74L220.068 276.119ZM222.982 271.888L217.939 267.589L217.584 267.982L217.285 268.417L222.982 271.888ZM226.461 268.028L221.994 263.151L221.691 263.426L221.417 263.729L226.461 268.028ZM234.302 260.905L230.37 255.581L230.093 255.793L229.835 256.027L234.302 260.905ZM238.672 257.565L235.715 251.602L235.206 251.886L234.74 252.241L238.672 257.565ZM241.673 255.89L240.131 249.307L239.398 249.545L238.716 249.926L241.673 255.89ZM244.513 254.967L243.348 248.272L243.158 248.323L242.971 248.384L244.513 254.967ZM247.954 254.04L247.657 247.165L247.22 247.229L246.789 247.345L247.954 254.04ZM250.655 253.644L251.354 246.693L250.857 246.697L250.357 246.77L250.655 253.644ZM253.747 253.622L258.469 247.994L256.75 246.654L254.446 246.671L253.747 253.622ZM254.225 253.994L259.625 248.986L259.31 248.651L258.947 248.367L254.225 253.994ZM254.962 254.778L249.561 259.787L249.561 259.787L254.962 254.778ZM255.698 255.563L262.376 252.649L261.951 251.461L261.099 250.554L255.698 255.563ZM256.1 256.687L263.114 256.636L263.265 255.136L262.778 253.774L256.1 256.687ZM255.858 259.095L262.112 261.626L262.737 260.381L262.872 259.044L255.858 259.095ZM255.214 260.377L259.528 265.39L260.753 264.332L261.468 262.909L255.214 260.377ZM253.898 261.515L249.584 256.502L249.213 256.822L248.883 257.184L253.898 261.515ZM251.968 263.634L246.953 259.303L246.444 259.862L246.051 260.499L251.968 263.634ZM250.943 265.295L256.249 269.287L256.583 268.877L256.86 268.43L250.943 265.295ZM249.278 267.337L243.972 263.344L243.758 263.606L243.568 263.884L249.278 267.337ZM247.467 269.981L241.757 266.528L241.259 267.256L240.938 268.062L247.467 269.981ZM246.777 271.715L253.283 273.693L253.295 273.664L253.306 273.635L246.777 271.715ZM245.979 273.676L239.474 271.698L239.436 271.791L239.401 271.885L245.979 273.676ZM245.043 276.163L238.464 274.373L237.96 275.71L237.997 277.081L245.043 276.163ZM245.096 278.193L238.05 279.11L238.051 279.164L238.054 279.217L245.096 278.193ZM245.223 281.199L238.18 282.223L238.205 282.796L238.326 283.347L245.223 281.199ZM245.635 283.075L238.738 285.224L238.996 286.399L239.662 287.371L245.635 283.075ZM246.608 284.497L240.634 288.793L240.85 289.108L241.104 289.392L246.608 284.497ZM248.074 286.14L242.569 291.035L242.946 291.458L243.398 291.803L248.074 286.14ZM249.827 287.48L245.152 293.144L245.296 293.254L245.448 293.356L249.827 287.48ZM251.596 288.67L247.216 294.546L248.008 295.078L248.944 295.353L251.596 288.67ZM253.097 289.111L250.445 295.793L251.387 296.069L252.398 296.062L253.097 289.111ZM255.76 289.091L255.061 296.043L255.308 296.041L255.557 296.022L255.76 289.091ZM256.086 289.066L256.289 282.136L256.289 282.136L256.086 289.066ZM257.366 288.968L257.163 295.899L257.163 295.899L257.366 288.968ZM258.839 288.855L258.636 295.786L261.174 295.591L263.176 293.848L258.839 288.855ZM272.612 276.866L276.949 281.859L277.047 281.774L277.143 281.685L272.612 276.866ZM283.31 266.94L287.841 271.759L287.861 271.74L287.882 271.721L283.31 266.94ZM290.8 259.894L295.372 264.675L295.382 264.665L290.8 259.894ZM298.103 253L293.544 248.207L293.533 248.218L293.521 248.229L298.103 253ZM307.485 244.211L302.946 239.4L302.936 239.409L302.926 239.419L307.485 244.211ZM316.198 236.104L320.737 240.916L320.757 240.896L320.778 240.877L316.198 236.104ZM325.112 227.695L320.603 222.856L320.567 222.889L320.533 222.922L325.112 227.695ZM333.911 219.587L329.431 214.721L329.416 214.735L329.401 214.749L333.911 219.587ZM342.133 212.085L337.672 207.202L337.663 207.21L337.653 207.219L342.133 212.085ZM351.579 203.521L356.04 208.405L356.082 208.366L356.125 208.326L351.579 203.521ZM364.507 191.464L369.053 196.269L369.249 196.086L369.432 195.892L364.507 191.464ZM375.397 179.891L380.322 184.319L381.674 182.883L382.184 181.045L375.397 179.891ZM376.752 175.012L372.22 170.194L370.554 171.741L369.966 173.858L376.752 175.012ZM378.564 173.33L375.792 167.266L374.832 167.77L374.032 168.512L378.564 173.33ZM386.267 169.29L383.57 163.187L383.532 163.206L383.494 163.226L386.267 169.29ZM391.787 166.468L389.25 160.286L389.169 160.325L389.09 160.365L391.787 166.468ZM399.997 162.499L402.535 168.682L403.013 168.45L403.46 168.156L399.997 162.499ZM404.502 159.535L401.278 153.726L401.157 153.8L401.039 153.878L404.502 159.535ZM410.994 155.578L408.1 149.58L407.933 149.671L407.77 149.77L410.994 155.578ZM421.167 150.017L419.45 143.493L418.843 143.707L418.273 144.018L421.167 150.017ZM425.973 148.328L425.642 141.458L424.938 141.565L424.255 141.805L425.973 148.328ZM431.202 147.538L431.474 140.603L431.173 140.623L430.872 140.669L431.202 147.538ZM433.709 147.37L435.422 140.485L434.712 140.385L433.98 140.434L433.709 147.37ZM434.724 147.513L439.523 141.946L438.196 140.876L436.438 140.628L434.724 147.513ZM439.806 151.611L446.841 150.451L446.67 147.709L444.604 146.044L439.806 151.611ZM439.905 153.189L432.87 154.348L432.873 154.405L432.878 154.462L439.905 153.189ZM440.133 156.044L447.018 156.802L447.241 155.781L447.16 154.771L440.133 156.044ZM439.656 158.228L444.755 162.464L446.117 160.921L446.54 158.986L439.656 158.228ZM437.718 160.422L442.009 165.455L442.441 165.084L442.817 164.659L437.718 160.422ZM434.712 163L430.421 157.966L430.402 157.983L430.384 157.999L434.712 163ZM433.49 164.061L432.155 170.988L435.295 171.252L437.818 169.062L433.49 164.061ZM431.021 163.853L432.356 156.926L431.761 156.876L431.156 156.928L431.021 163.853ZM424.619 164.351L424.815 157.421L423.358 157.534L422.005 158.206L424.619 164.351ZM423.083 165.114L420.468 158.969L418.703 159.846L417.532 161.437L423.083 165.114ZM420.19 169.044L424.86 173.73L425.343 173.26L425.741 172.72L420.19 169.044ZM419.153 170.052L414.482 165.366L414.199 165.642L413.944 165.942L419.153 170.052ZM418.276 171.088L423.454 175.234L423.469 175.216L423.485 175.197L418.276 171.088ZM416.525 173.13L411.348 168.984L411.249 169.099L411.154 169.218L416.525 173.13ZM415.311 174.659L409.94 170.747L408.516 172.54L408.298 174.71L415.311 174.659ZM412.732 178.42L418.491 181.8L418.492 181.799L412.732 178.42ZM411.762 180.382L416.84 184.642L417.594 183.794L418.077 182.788L411.762 180.382ZM407.293 184.699L403.07 179.608L402.13 180.397L401.469 181.418L407.293 184.699ZM405.972 186.738L411.078 190.967L411.473 190.518L411.796 190.02L405.972 186.738ZM404.641 188.026L403.33 181.372L403.33 181.372L404.641 188.026ZM392.186 190.535L389.992 184.197L389.991 184.197L392.186 190.535ZM389.508 192.661L394.258 197.268L394.425 197.102L394.582 196.926L389.508 192.661ZM384.667 196.29L381.47 190.466L380.782 190.882L380.186 191.426L384.667 196.29ZM375.121 205.005L370.64 200.14L370.56 200.213L370.482 200.288L375.121 205.005ZM359.535 220.003L364.109 224.782L364.142 224.751L364.174 224.72L359.535 220.003ZM340.382 238.034L344.917 242.849L344.937 242.831L344.956 242.813L340.382 238.034ZM319.835 257.128L315.3 252.312L315.266 252.343L315.233 252.375L319.835 257.128ZM293.925 281.748L298.46 286.562L298.493 286.532L298.526 286.501L293.925 281.748ZM275.176 299.175L270.64 294.36L270.568 294.427L270.499 294.495L275.176 299.175ZM259.949 314.02L255.271 309.34L254.46 310.131L253.903 311.101L259.949 314.02ZM259.428 314.926L253.383 312.007L251.28 315.669L253.283 318.956L259.428 314.926ZM260.386 316.498L254.241 320.528L254.259 320.558L254.278 320.589L260.386 316.498ZM261.791 318.743L255.683 322.834L256.251 323.74L257.099 324.393L261.791 318.743ZM264.5 320.828L269.375 315.324L269.285 315.249L269.192 315.177L264.5 320.828ZM267.985 323.735L263.11 329.239L263.244 329.35L263.384 329.454L267.985 323.735ZM270.701 325.745L266.1 331.464L267.115 332.215L268.378 332.515L270.701 325.745ZM272.546 326.183L270.223 332.952L271.013 333.14L271.847 333.134L272.546 326.183ZM278.316 325.99L278.017 332.928L278.171 332.918L278.325 332.902L278.316 325.99ZM281.353 325.668L281.362 332.579L282.056 332.505L282.736 332.3L281.353 325.668ZM283.655 324.974L285.038 331.607L285.576 331.445L286.092 331.204L283.655 324.974ZM285.456 324.134L287.893 330.364L288.621 330.025L289.274 329.543L285.456 324.134ZM287.31 322.768L291.128 328.177L291.282 328.064L291.43 327.943L287.31 322.768ZM289.18 321.251L293.3 326.426L293.424 326.325L293.544 326.22L289.18 321.251ZM290.402 320.189L286.282 315.014L286.282 315.014L290.402 320.189ZM294.045 318.96L294.744 312.009L294.381 312.011L294.015 312.051L294.045 318.96ZM295.677 318.948L297.79 312.132L297.098 311.992L296.376 311.997L295.677 318.948ZM297.107 319.239L301.565 313.416L300.514 312.685L299.22 312.422L297.107 319.239ZM298.133 320.133L291.324 322.634L291.324 322.634L298.133 320.133ZM298.583 321.634L303.751 316.391L303.751 316.391L298.583 321.634ZM298.93 325.014L305.646 326.407L306.065 325.072L305.957 323.732L298.93 325.014ZM297.415 329.836L303.536 332.621L303.905 331.948L304.131 331.23L297.415 329.836ZM296.049 332.327L300.771 336.963L301.61 336.132L302.17 335.111L296.049 332.327ZM289.852 338.461L293.761 343.803L294.191 343.477L294.574 343.097L289.852 338.461ZM285.949 341.422L287.462 348.014L288.756 347.599L289.858 346.763L285.949 341.422ZM281.869 342.729L280.356 336.137L280.138 336.207L279.922 336.291L281.869 342.729ZM277.314 344.491L275.367 338.053L275.34 338.063L275.313 338.074L277.314 344.491ZM271.41 346.865L275.53 352.04L275.53 352.04L271.41 346.865ZM267.09 348.851L271.21 354.026L271.21 354.026L267.09 348.851ZM263.169 351.134L260.177 345.19L259.373 345.644L258.688 346.27L263.169 351.134ZM257.026 356.742L252.544 351.877L252.311 352.091L252.095 352.321L257.026 356.742ZM253.757 360.224L248.826 355.803L247.87 356.821L247.323 358.077L253.757 360.224ZM252.54 362.939L258.299 366.318L258.3 366.318L252.54 362.939ZM251.176 366.257L257.985 363.756L257.985 363.756L251.176 366.257ZM248.396 373.419L241.897 371.424L241.75 371.784L241.641 372.154L248.396 373.419ZM247.353 376.96L253.746 379.198L253.961 378.72L254.107 378.225L247.353 376.96ZM246.027 379.901L239.633 377.663L239.528 377.896L239.439 378.134L246.027 379.901ZM244.734 383.369L250.872 386.123L251.133 385.642L251.321 385.136L244.734 383.369ZM243.259 386.086L249.283 389.042L249.341 388.942L249.397 388.84L243.259 386.086ZM240.976 390.012L246.854 393.209L246.929 393.09L247 392.968L240.976 390.012ZM236.788 396.658L242.233 400.474L242.465 400.174L242.666 399.855L236.788 396.658ZM234.517 399.606L238.637 404.782L239.381 404.178L239.963 403.423L234.517 399.606ZM230.965 402.488L226.845 397.313L226.396 397.678L226.002 398.101L230.965 402.488ZM225.767 408.089L229.719 413.398L230.263 412.979L230.729 412.477L225.767 408.089ZM222.51 410.594L224.619 416.968L225.606 416.561L226.463 415.902L222.51 410.594ZM217.316 412.736L215.207 406.362L215.073 406.418L214.941 406.478L217.316 412.736ZM212.458 414.952L213.201 421.747L214.04 421.572L214.833 421.21L212.458 414.952ZM206.496 416.198L206.812 423.07L207.026 423.038L207.239 422.993L206.496 416.198ZM186.172 415.142L181.004 420.385L182.122 421.45L183.657 421.863L186.172 415.142ZM179.948 410.451L184.11 404.436L184.059 404.404L184.007 404.374L179.948 410.451ZM175.003 407.555L170.227 413.14L170.567 413.411L170.945 413.632L175.003 407.555ZM166.422 400.701L171.198 395.116L171.188 395.108L171.177 395.1L166.422 400.701ZM161.81 397.051L166.566 391.45L166.331 391.264L166.079 391.102L161.81 397.051ZM387.726 194.442L390.924 200.266L391.773 199.753L392.477 199.049L387.726 194.442ZM160.654 388.91L159.82 388.916L158.422 402.819L159.256 402.813L160.654 388.91ZM165.45 392.16L164.699 390.737L152.042 398.152L152.793 399.574L165.45 392.16ZM163.134 388.85L161.634 387.658L152.106 398.847L153.607 400.039L163.134 388.85ZM161.706 387.716L153.617 381.084L143.945 392.156L152.034 398.789L161.706 387.716ZM154.164 381.592L147.722 374.798L136.958 384.854L143.399 391.648L154.164 381.592ZM148.47 375.77L142.566 366.19L130.306 374.301L136.21 383.881L148.47 375.77ZM143.149 367.435L139.577 356.861L126.151 362.483L129.723 373.057L143.149 367.435ZM139.907 358.657L139.61 351.367L125.524 353.396L125.821 360.686L139.907 358.657ZM139.435 353.214L141.268 345.232L127.532 343.566L125.699 351.549L139.435 353.214ZM140.775 346.679L143.745 340.192L130.995 335.633L128.025 342.12L140.775 346.679ZM142.353 342.278L147.653 336.526L137.687 327.795L132.387 333.547L142.353 342.278ZM147.263 336.921L154.379 330.179L145.193 320.658L138.077 327.4L147.263 336.921ZM152.378 331.574L159.964 327.835L154.78 315.524L147.194 319.263L152.378 331.574ZM159.648 327.982L167.821 324.39L163.269 311.784L155.096 315.377L159.648 327.982ZM167.25 324.615L174.279 322.158L170.868 309.103L163.84 311.559L167.25 324.615ZM174.51 322.073L183.261 318.702L179.388 305.816L170.637 309.188L174.51 322.073ZM183.38 318.655L189.823 316.052L185.711 303.261L179.269 305.863L183.38 318.655ZM189.649 316.12L194.735 314.204L190.97 301.277L185.884 303.193L189.649 316.12ZM197.173 312.747L202.251 308.35L193.609 298.336L188.531 302.733L197.173 312.747ZM202.185 308.407L209.879 301.886L201.37 291.758L193.675 298.279L202.185 308.407ZM210.269 301.534L216.162 295.853L206.874 286.429L200.981 292.11L210.269 301.534ZM217.136 294.725L219.134 291.929L207.898 284.761L205.9 287.557L217.136 294.725ZM220.006 290.359L221.595 286.513L208.614 282.486L207.026 286.331L220.006 290.359ZM221.309 287.128L223.544 282.826L211.135 277.57L208.9 281.871L221.309 287.128ZM223.099 283.577L225.827 279.498L214.308 272.74L211.58 276.819L223.099 283.577ZM225.765 279.59L228.68 275.359L217.285 268.417L214.37 272.648L225.765 279.59ZM228.026 276.187L231.504 272.327L221.417 263.729L217.939 267.589L228.026 276.187ZM230.928 272.906L238.769 265.782L229.835 256.027L221.994 263.151L230.928 272.906ZM238.234 266.229L242.604 262.889L234.74 252.241L230.37 255.581L238.234 266.229ZM241.63 263.529L244.631 261.853L238.716 249.926L235.715 251.602L241.63 263.529ZM243.216 262.472L246.055 261.55L242.971 248.384L240.131 249.307L243.216 262.472ZM245.679 261.662L249.12 260.734L246.789 247.345L243.348 248.272L245.679 261.662ZM248.252 260.915L250.952 260.519L250.357 246.77L247.657 247.165L248.252 260.915ZM249.956 260.596L253.048 260.573L254.446 246.671L251.354 246.693L249.956 260.596ZM249.026 259.25L249.503 259.622L258.947 248.367L258.469 247.994L249.026 259.25ZM248.824 259.003L249.561 259.787L260.362 249.77L259.625 248.986L248.824 259.003ZM249.561 259.787L250.298 260.571L261.099 250.554L260.362 249.77L249.561 259.787ZM249.021 258.476L249.422 259.6L262.778 253.774L262.376 252.649L249.021 258.476ZM249.087 256.738L248.958 258.017L262.985 257.915L263.114 256.636L249.087 256.738ZM248.958 258.017L248.844 259.146L262.872 259.044L262.985 257.915L248.958 258.017ZM249.604 256.563L248.96 257.846L261.468 262.909L262.112 261.626L249.604 256.563ZM250.9 255.364L249.584 256.502L258.212 266.528L259.528 265.39L250.9 255.364ZM248.883 257.184L246.953 259.303L256.983 267.964L258.913 265.845L248.883 257.184ZM246.051 260.499L245.026 262.16L256.86 268.43L257.885 266.768L246.051 260.499ZM245.636 261.302L243.972 263.344L254.584 271.329L256.249 269.287L245.636 261.302ZM243.568 263.884L241.757 266.528L253.177 273.434L254.988 270.79L243.568 263.884ZM240.938 268.062L240.249 269.796L253.306 273.635L253.995 271.901L240.938 268.062ZM240.272 269.738L239.474 271.698L252.485 275.653L253.283 273.693L240.272 269.738ZM239.401 271.885L238.464 274.373L251.621 277.953L252.558 275.466L239.401 271.885ZM237.997 277.081L238.05 279.11L252.142 277.275L252.089 275.246L237.997 277.081ZM238.054 279.217L238.18 282.223L252.265 280.175L252.138 277.169L238.054 279.217ZM238.326 283.347L238.738 285.224L252.532 280.927L252.12 279.051L238.326 283.347ZM239.662 287.371L240.634 288.793L252.581 280.201L251.608 278.779L239.662 287.371ZM241.104 289.392L242.569 291.035L253.578 281.245L252.112 279.601L241.104 289.392ZM243.398 291.803L245.152 293.144L254.503 281.817L252.749 280.477L243.398 291.803ZM245.448 293.356L247.216 294.546L255.976 282.795L254.207 281.605L245.448 293.356ZM248.944 295.353L250.445 295.793L255.749 282.428L254.248 281.988L248.944 295.353ZM252.398 296.062L255.061 296.043L256.459 282.14L253.796 282.159L252.398 296.062ZM255.557 296.022L255.883 295.997L256.289 282.136L255.963 282.161L255.557 296.022ZM255.883 295.997L257.163 295.899L257.569 282.038L256.289 282.136L255.883 295.997ZM257.163 295.899L258.636 295.786L259.042 281.925L257.569 282.038L257.163 295.899ZM263.176 293.848L276.949 281.859L268.275 271.872L254.502 283.862L263.176 293.848ZM277.143 281.685L287.841 271.759L278.78 262.12L268.082 272.046L277.143 281.685ZM287.882 271.721L295.372 264.675L286.229 255.113L278.739 262.159L287.882 271.721ZM295.382 264.665L302.685 257.771L293.521 248.229L286.218 255.123L295.382 264.665ZM302.662 257.793L312.044 249.004L302.926 239.419L293.544 248.207L302.662 257.793ZM312.024 249.023L320.737 240.916L311.659 231.293L302.946 239.4L312.024 249.023ZM320.778 240.877L329.692 232.468L320.533 222.922L311.618 231.331L320.778 240.877ZM329.622 232.533L338.421 224.425L329.401 214.749L320.603 222.856L329.622 232.533ZM338.391 224.453L346.613 216.951L337.653 207.219L329.431 214.721L338.391 224.453ZM346.594 216.968L356.04 208.405L347.118 198.638L337.672 207.202L346.594 216.968ZM356.125 208.326L369.053 196.269L359.961 186.659L347.033 198.716L356.125 208.326ZM369.432 195.892L380.322 184.319L370.473 175.463L359.583 187.035L369.432 195.892ZM382.184 181.045L383.539 176.166L369.966 173.858L368.611 178.737L382.184 181.045ZM381.284 179.83L383.096 178.148L374.032 168.512L372.22 170.194L381.284 179.83ZM381.336 179.394L389.039 175.354L383.494 163.226L375.792 167.266L381.336 179.394ZM388.964 175.393L394.484 172.571L389.09 160.365L383.57 163.187L388.964 175.393ZM394.324 172.65L402.535 168.682L397.46 156.317L389.25 160.286L394.324 172.65ZM403.46 168.156L407.964 165.192L401.039 153.878L396.534 156.843L403.46 168.156ZM407.725 165.343L414.218 161.387L407.77 149.77L401.278 153.726L407.725 165.343ZM413.889 161.577L424.062 156.015L418.273 144.018L408.1 149.58L413.889 161.577ZM422.885 156.54L427.691 154.851L424.255 141.805L419.45 143.493L422.885 156.54ZM426.303 155.198L431.533 154.408L430.872 140.669L425.642 141.458L426.303 155.198ZM430.931 154.474L433.438 154.305L433.98 140.434L431.474 140.603L430.931 154.474ZM431.995 154.255L433.011 154.398L436.438 140.628L435.422 140.485L431.995 154.255ZM429.926 153.08L435.008 157.178L444.604 146.044L439.523 141.946L429.926 153.08ZM432.771 152.77L432.87 154.348L446.94 152.029L446.841 150.451L432.771 152.77ZM432.878 154.462L433.106 157.317L447.16 154.771L446.932 151.916L432.878 154.462ZM433.248 155.286L432.771 157.47L446.54 158.986L447.018 156.802L433.248 155.286ZM434.557 153.991L432.619 156.185L442.817 164.659L444.755 162.464L434.557 153.991ZM433.427 155.389L430.421 157.966L439.003 168.033L442.009 165.455L433.427 155.389ZM430.384 157.999L429.161 159.06L437.818 169.062L439.041 168L430.384 157.999ZM434.824 157.134L432.356 156.926L429.686 170.78L432.155 170.988L434.824 157.134ZM431.156 156.928C430.685 156.969 429.97 157.03 429.36 157.08C429.053 157.106 428.782 157.128 428.584 157.143C428.483 157.151 428.414 157.156 428.375 157.159C428.354 157.16 428.357 157.16 428.374 157.159C428.383 157.159 428.409 157.157 428.445 157.156C428.466 157.155 428.563 157.15 428.691 157.149L427.293 171.052C427.718 171.049 428.69 170.964 429.042 170.934C429.674 170.882 430.405 170.82 430.886 170.778L431.156 156.928ZM428.691 157.149C428.22 157.153 425.595 157.36 424.815 157.421L424.423 171.281C424.953 171.24 425.755 171.178 426.439 171.126C426.782 171.101 427.088 171.078 427.313 171.062C427.427 171.054 427.509 171.048 427.56 171.045C427.586 171.043 427.591 171.043 427.581 171.044C427.576 171.044 427.555 171.045 427.524 171.047C427.511 171.047 427.416 171.051 427.293 171.052L428.691 157.149ZM422.005 158.206L420.468 158.969L425.697 171.258L427.233 170.495L422.005 158.206ZM417.532 161.437L414.638 165.367L425.741 172.72L428.634 168.79L417.532 161.437ZM415.519 164.357L414.482 165.366L423.823 174.739L424.86 173.73L415.519 164.357ZM413.944 165.942L413.067 166.978L423.485 175.197L424.361 174.162L413.944 165.942ZM413.098 166.941L411.348 168.984L421.703 177.276L423.454 175.234L413.098 166.941ZM411.154 169.218L409.94 170.747L420.682 178.571L421.897 177.042L411.154 169.218ZM408.298 174.71C408.363 174.06 408.512 173.582 408.564 173.42C408.631 173.213 408.69 173.074 408.707 173.034C408.739 172.96 408.739 172.968 408.668 173.106C408.578 173.279 408.559 173.308 408.419 173.574C408.377 173.653 408.284 173.829 408.191 174.023C408.147 174.115 408.054 174.311 407.955 174.557C407.906 174.681 407.825 174.891 407.744 175.152C407.703 175.287 407.651 175.469 407.601 175.685C407.553 175.894 407.491 176.203 407.453 176.579L421.48 176.477C421.443 176.849 421.382 177.154 421.335 177.357C421.287 177.569 421.236 177.745 421.196 177.874C421.119 178.124 421.044 178.319 421 178.427C420.915 178.641 420.84 178.798 420.818 178.842C420.771 178.941 420.741 178.995 420.775 178.931C420.787 178.908 420.97 178.567 421.084 178.348C421.216 178.093 421.422 177.686 421.615 177.236C421.712 177.008 421.84 176.691 421.959 176.322C422.063 175.999 422.247 175.377 422.325 174.608L408.298 174.71ZM407.453 176.579C407.52 175.915 407.671 175.377 407.785 175.033C407.903 174.675 408.03 174.384 408.126 174.181C408.312 173.788 408.493 173.492 408.59 173.34C408.786 173.033 408.956 172.817 409.006 172.754C409.124 172.603 409.199 172.524 409.159 172.568C409.102 172.631 408.978 172.763 408.773 172.976C408.679 173.074 408.582 173.174 408.481 173.278C408.384 173.378 408.278 173.487 408.183 173.586C408.093 173.68 407.977 173.801 407.867 173.919C407.815 173.976 407.729 174.069 407.633 174.179C407.585 174.234 407.509 174.322 407.422 174.431C407.356 174.512 407.174 174.738 406.971 175.041L418.492 181.799C418.295 182.093 418.123 182.306 418.069 182.372C417.993 182.466 417.932 182.537 417.902 182.572C417.868 182.611 417.842 182.64 417.828 182.655C417.814 182.671 417.804 182.681 417.802 182.684C417.8 182.685 417.827 182.656 417.904 182.577C417.974 182.504 418.057 182.418 418.161 182.311C418.26 182.209 418.375 182.091 418.49 181.971C418.704 181.749 418.994 181.446 419.248 181.163C419.364 181.035 419.568 180.805 419.779 180.539C419.874 180.417 420.081 180.151 420.302 179.804C420.412 179.632 420.603 179.319 420.796 178.911C420.938 178.611 421.358 177.696 421.48 176.477L407.453 176.579ZM406.972 175.04C406.785 175.32 406.652 175.558 406.628 175.602C406.576 175.694 406.532 175.775 406.504 175.829C406.446 175.939 406.389 176.049 406.344 176.139C406.25 176.324 406.142 176.543 406.039 176.753C405.83 177.18 405.597 177.661 405.446 177.975L418.077 182.788C418.216 182.498 418.428 182.06 418.611 181.686C418.704 181.497 418.779 181.346 418.829 181.246C418.856 181.194 418.862 181.183 418.853 181.199C418.849 181.206 418.827 181.248 418.793 181.308C418.776 181.339 418.746 181.392 418.706 181.459C418.672 181.516 418.597 181.642 418.491 181.8L406.972 175.04ZM406.683 176.122C406.212 176.651 405.061 177.946 404.841 178.203L415.197 186.495C415.187 186.506 415.237 186.449 415.383 186.284C415.507 186.143 415.668 185.962 415.842 185.765C416.19 185.373 416.584 184.93 416.84 184.642L406.683 176.122ZM404.841 178.203C404.985 178.035 405.104 177.911 405.157 177.856C405.219 177.791 405.269 177.743 405.297 177.716C405.326 177.687 405.349 177.665 405.361 177.654C405.374 177.642 405.381 177.635 405.384 177.633C405.387 177.63 405.379 177.637 405.357 177.657C405.336 177.676 405.307 177.701 405.271 177.733C405.118 177.868 404.896 178.06 404.628 178.289C404.099 178.742 403.479 179.265 403.07 179.608L411.516 189.79C411.951 189.425 412.616 188.864 413.2 188.364C413.488 188.117 413.78 187.865 414.021 187.653C414.138 187.55 414.272 187.43 414.4 187.313C414.462 187.256 414.55 187.173 414.647 187.079C414.698 187.03 414.935 186.8 415.197 186.495L404.841 178.203ZM401.469 181.418L400.148 183.457L411.796 190.02L413.117 187.981L401.469 181.418ZM400.866 182.51C400.759 182.631 400.594 182.811 400.48 182.925C400.413 182.992 400.458 182.942 400.586 182.832C400.645 182.782 400.83 182.624 401.103 182.434C401.243 182.336 401.476 182.181 401.782 182.013C402.056 181.863 402.6 181.584 403.33 181.372L405.952 194.68C407.269 194.297 408.196 193.638 408.385 193.506C408.743 193.257 409.025 193.022 409.191 192.879C409.532 192.585 409.83 192.292 410.025 192.096C410.435 191.683 410.83 191.249 411.078 190.967L400.866 182.51ZM403.33 181.372C403.519 181.317 403.66 181.285 403.705 181.275C403.766 181.261 403.807 181.253 403.82 181.25C403.845 181.245 403.837 181.247 403.786 181.256C403.689 181.272 403.53 181.296 403.339 181.32C403.148 181.345 402.959 181.365 402.795 181.38C402.616 181.395 402.544 181.396 402.561 181.396L401.163 195.298C402.068 195.292 403.038 195.187 403.673 195.105C404.092 195.052 405.149 194.913 405.952 194.68L403.33 181.372ZM402.561 181.396L399.726 181.416L398.328 195.319L401.163 195.298L402.561 181.396ZM399.726 181.416C400.165 181.413 400.487 181.456 400.593 181.471C400.705 181.487 400.778 181.501 400.715 181.489C400.645 181.477 400.298 181.408 399.9 181.353C399.008 181.232 397.897 181.176 396.521 181.326L396.581 195.144C396.68 195.133 396.635 195.145 396.526 195.13C396.521 195.129 396.494 195.124 396.69 195.161C396.76 195.174 396.952 195.21 397.172 195.241C397.385 195.271 397.803 195.323 398.328 195.319L399.726 181.416ZM396.521 181.326C395.428 181.446 394.353 181.455 394.142 181.457L392.744 195.359C393.049 195.357 394.723 195.347 396.581 195.144L396.521 181.326ZM394.142 181.457C392.357 181.469 390.309 182.171 388.67 183.8C387.283 185.178 386.778 186.645 386.59 187.33C386.383 188.081 386.34 188.695 386.328 189.013C386.314 189.368 386.329 189.661 386.342 189.848C386.368 190.21 386.416 190.516 386.438 190.651C386.46 190.787 386.492 190.967 386.498 191.001C386.538 191.235 386.488 191.013 386.477 190.664C386.47 190.486 386.46 189.971 386.597 189.286C386.717 188.691 387.111 187.129 388.54 185.626L398.329 194.545C399.83 192.967 400.27 191.295 400.416 190.567C400.581 189.749 400.577 189.077 400.565 188.727C400.542 188.036 400.428 187.414 400.402 187.267C400.397 187.236 400.378 187.126 400.377 187.123C400.374 187.105 400.372 187.092 400.37 187.083C400.37 187.078 400.369 187.075 400.369 187.072C400.368 187.071 400.368 187.07 400.368 187.07C400.368 187.069 400.368 187.069 400.368 187.069C400.368 187.069 400.368 187.069 400.368 187.07C400.368 187.07 400.369 187.071 400.369 187.073C400.369 187.075 400.37 187.08 400.371 187.085C400.372 187.096 400.375 187.114 400.378 187.139C400.384 187.183 400.395 187.278 400.405 187.409C400.413 187.529 400.426 187.761 400.415 188.062C400.404 188.326 400.368 188.893 400.171 189.606C399.993 190.253 399.504 191.69 398.137 193.048C397.413 193.768 396.519 194.384 395.491 194.802C394.48 195.213 393.532 195.354 392.744 195.359L394.142 181.457ZM388.54 185.626C389.075 185.063 389.598 184.684 389.977 184.445C390.36 184.204 390.689 184.047 390.912 183.95C391.332 183.769 391.64 183.691 391.696 183.676C391.753 183.662 391.818 183.648 391.635 183.688C391.584 183.699 391.421 183.733 391.238 183.779C391.14 183.804 390.99 183.843 390.81 183.898C390.646 183.949 390.349 184.044 389.992 184.197L394.381 196.873C393.806 197.118 393.342 197.228 393.322 197.233C393.217 197.259 393.146 197.274 393.198 197.262C393.221 197.257 393.533 197.193 393.843 197.114C394.152 197.035 394.721 196.877 395.375 196.595C395.946 196.348 397.176 195.758 398.329 194.545L388.54 185.626ZM389.991 184.197C389.434 184.435 388.998 184.703 388.996 184.704C388.866 184.781 388.754 184.852 388.679 184.9C388.522 185.001 388.363 185.107 388.218 185.207C387.923 185.409 387.568 185.663 387.194 185.944C386.609 186.383 385.394 187.318 384.434 188.396L394.582 196.926C394.525 196.99 394.481 197.036 394.455 197.062C394.429 197.089 394.413 197.104 394.41 197.106C394.406 197.11 394.429 197.089 394.484 197.042C394.537 196.996 394.606 196.94 394.688 196.875C394.77 196.81 394.858 196.742 394.949 196.674C395.039 196.606 395.127 196.542 395.207 196.484C395.288 196.426 395.356 196.379 395.405 196.345C395.429 196.328 395.446 196.317 395.455 196.311C395.465 196.304 395.46 196.308 395.442 196.319C395.433 196.325 395.416 196.336 395.393 196.35C395.371 196.364 395.334 196.387 395.286 196.415C395.261 196.43 395.23 196.448 395.193 196.47C395.157 196.49 395.108 196.518 395.051 196.549C394.995 196.579 394.916 196.622 394.818 196.671C394.768 196.696 394.708 196.725 394.638 196.758C394.57 196.79 394.483 196.83 394.381 196.873L389.991 184.197ZM380.186 191.426L370.64 200.14L379.603 209.869L389.149 201.154L380.186 191.426ZM370.482 200.288L354.896 215.286L364.174 224.72L379.76 209.722L370.482 200.288ZM354.961 215.224L335.808 233.255L344.956 242.813L364.109 224.782L354.961 215.224ZM335.847 233.219L315.3 252.312L324.37 261.943L344.917 242.849L335.847 233.219ZM315.233 252.375L289.323 276.995L298.526 286.501L324.436 261.88L315.233 252.375ZM289.389 276.934L270.64 294.36L279.712 303.989L298.46 286.562L289.389 276.934ZM270.499 294.495L255.271 309.34L264.626 318.7L279.853 303.855L270.499 294.495ZM253.903 311.101L253.383 312.007L265.474 317.845L265.994 316.939L253.903 311.101ZM253.283 318.956L254.241 320.528L266.531 312.467L265.574 310.896L253.283 318.956ZM254.278 320.589L255.683 322.834L267.899 314.652L266.494 312.407L254.278 320.589ZM257.099 324.393L259.808 326.479L269.192 315.177L266.483 313.092L257.099 324.393ZM259.625 326.332L263.11 329.239L272.86 318.231L269.375 315.324L259.625 326.332ZM263.384 329.454L266.1 331.464L275.302 320.025L272.586 318.015L263.384 329.454ZM268.378 332.515L270.223 332.952L274.868 319.413L273.024 318.975L268.378 332.515ZM271.847 333.134L274.767 333.113L276.165 319.21L273.245 319.231L271.847 333.134ZM274.767 333.113C275.17 333.11 277.346 332.97 278.017 332.928L278.615 319.053C278.172 319.081 277.5 319.123 276.925 319.158C276.636 319.176 276.378 319.191 276.187 319.202C276.091 319.208 276.021 319.212 275.978 319.214C275.955 319.215 275.951 319.215 275.959 319.215C275.962 319.215 275.978 319.214 276.002 319.213C276.016 319.213 276.08 319.211 276.165 319.21L274.767 333.113ZM278.325 332.902L281.362 332.579L281.344 318.757L278.307 319.079L278.325 332.902ZM282.736 332.3L285.038 331.607L282.272 318.342L279.97 319.035L282.736 332.3ZM286.092 331.204L287.893 330.364L283.019 317.904L281.218 318.744L286.092 331.204ZM289.274 329.543L291.128 328.177L283.492 317.359L281.638 318.725L289.274 329.543ZM291.43 327.943L293.3 326.426L285.059 316.075L283.19 317.592L291.43 327.943ZM293.544 326.22C293.71 326.074 293.969 325.847 294.201 325.645C294.318 325.543 294.421 325.454 294.5 325.386C294.539 325.352 294.566 325.33 294.581 325.317C294.608 325.294 294.578 325.32 294.522 325.365L286.282 315.014C285.971 315.266 285.068 316.059 284.815 316.281L293.544 326.22ZM294.522 325.365C294.248 325.587 294.027 325.735 293.99 325.76C293.915 325.811 293.862 325.844 293.848 325.853C293.818 325.871 293.824 325.867 293.876 325.837C293.975 325.778 294.128 325.692 294.293 325.602C294.467 325.507 294.578 325.45 294.608 325.436C294.635 325.422 294.543 325.469 294.38 325.536C294.306 325.567 294.107 325.648 293.836 325.733C293.699 325.777 293.47 325.845 293.181 325.908C292.935 325.961 292.39 326.069 291.699 326.074L293.097 312.171C291.911 312.18 290.968 312.499 290.862 312.533C290.549 312.632 290.297 312.732 290.161 312.789C289.875 312.907 289.625 313.026 289.472 313.101C289.141 313.263 288.798 313.444 288.519 313.597C288.229 313.755 287.927 313.925 287.661 314.081C287.531 314.157 287.377 314.25 287.221 314.347C287.197 314.362 286.746 314.637 286.282 315.014L294.522 325.365ZM291.699 326.074C292.203 326.07 292.982 325.984 293.062 325.976C293.42 325.94 293.817 325.897 294.075 325.869L294.015 312.051C293.781 312.077 293.424 312.115 293.115 312.146C292.959 312.162 292.833 312.174 292.749 312.182C292.705 312.186 292.693 312.187 292.704 312.186C292.709 312.185 292.738 312.183 292.781 312.181C292.804 312.18 292.93 312.172 293.097 312.171L291.699 326.074ZM293.346 325.911L294.978 325.9L296.376 311.997L294.744 312.009L293.346 325.911ZM293.565 325.764L294.995 326.055L299.22 312.422L297.79 312.132L293.565 325.764ZM292.65 325.061C292.72 325.11 292.824 325.188 292.872 325.227C292.906 325.255 292.822 325.189 292.686 325.051C292.62 324.984 292.457 324.814 292.267 324.561C292.169 324.43 292.024 324.225 291.871 323.954C291.729 323.703 291.498 323.252 291.324 322.634L304.942 317.632C304.623 316.494 304.062 315.747 303.909 315.544C303.672 315.228 303.447 314.989 303.308 314.847C303.025 314.559 302.748 314.323 302.571 314.177C302.199 313.87 301.816 313.591 301.565 313.416L292.65 325.061ZM291.324 322.634C291.321 322.622 291.323 322.631 291.34 322.691C291.346 322.716 291.354 322.744 291.363 322.777C291.371 322.809 291.381 322.845 291.391 322.884C291.432 323.035 291.486 323.237 291.544 323.441C291.597 323.631 291.671 323.889 291.75 324.133C291.786 324.245 291.853 324.447 291.942 324.672C291.985 324.778 292.07 324.986 292.195 325.231C292.258 325.355 292.363 325.554 292.512 325.785C292.635 325.974 292.93 326.415 293.415 326.876L303.751 316.391C304.012 316.639 304.204 316.867 304.331 317.03C304.463 317.198 304.565 317.348 304.638 317.462C304.782 317.684 304.881 317.871 304.938 317.982C305.049 318.202 305.12 318.377 305.146 318.442C305.179 318.525 305.2 318.586 305.21 318.613C305.22 318.644 305.227 318.662 305.228 318.665C305.229 318.67 305.223 318.651 305.209 318.604C305.196 318.56 305.18 318.505 305.162 318.439C305.124 318.305 305.085 318.16 305.047 318.021C305.021 317.922 304.971 317.735 304.942 317.632L291.324 322.634ZM293.415 326.876C293.049 326.528 292.795 326.196 292.633 325.964C292.466 325.723 292.344 325.508 292.259 325.347C292.094 325.035 291.99 324.771 291.934 324.619C291.822 324.317 291.76 324.073 291.737 323.978C291.684 323.765 291.658 323.608 291.655 323.584C291.642 323.507 291.641 323.489 291.652 323.577C291.67 323.728 291.697 323.981 291.729 324.316C291.792 324.97 291.86 325.764 291.904 326.296L305.957 323.732C305.91 323.162 305.836 322.296 305.764 321.55C305.729 321.185 305.69 320.803 305.651 320.488C305.634 320.342 305.607 320.131 305.571 319.917C305.555 319.826 305.519 319.613 305.456 319.361C305.428 319.245 305.361 318.986 305.245 318.672C305.187 318.514 305.081 318.245 304.914 317.929C304.783 317.68 304.426 317.033 303.751 316.391L293.415 326.876ZM292.214 323.621L290.699 328.443L304.131 331.23L305.646 326.407L292.214 323.621ZM291.294 327.052L289.928 329.543L302.17 335.111L303.536 332.621L291.294 327.052ZM291.327 327.691L285.13 333.826L294.574 343.097L300.771 336.963L291.327 327.691ZM285.944 333.12L282.041 336.08L289.858 346.763L293.761 343.803L285.944 333.12ZM284.437 334.829L280.356 336.137L283.382 349.322L287.462 348.014L284.437 334.829ZM279.922 336.291L275.367 338.053L279.261 350.93L283.816 349.168L279.922 336.291ZM275.313 338.074C274.339 338.459 272.871 339.041 271.632 339.537C271.016 339.784 270.442 340.014 270.011 340.19C269.8 340.276 269.598 340.36 269.434 340.429C269.359 340.461 269.249 340.507 269.136 340.558C269.086 340.581 268.975 340.631 268.842 340.696C268.779 340.727 268.648 340.792 268.487 340.882C268.468 340.892 267.904 341.191 267.29 341.689L275.53 352.04C275.156 352.344 274.838 352.546 274.713 352.624C274.555 352.723 274.424 352.797 274.346 352.84C274.19 352.926 274.067 352.987 274.014 353.013C273.9 353.069 273.816 353.107 273.799 353.115C273.752 353.136 273.735 353.142 273.777 353.125C273.848 353.095 273.978 353.041 274.172 352.962C274.553 352.806 275.087 352.591 275.695 352.348C276.906 351.863 278.352 351.29 279.315 350.909L275.313 338.074ZM267.29 341.689C267.784 341.288 268.218 341.037 268.273 341.005C268.418 340.919 268.533 340.857 268.587 340.829C268.7 340.769 268.784 340.728 268.802 340.72C268.85 340.696 268.867 340.689 268.825 340.708C268.752 340.741 268.625 340.798 268.433 340.883C268.248 340.966 268.032 341.061 267.788 341.169C267.547 341.275 267.284 341.391 267.018 341.509C266.497 341.741 265.921 341.998 265.443 342.221C265.21 342.329 264.945 342.454 264.699 342.578C264.58 342.638 264.406 342.727 264.215 342.834C264.119 342.888 263.975 342.97 263.808 343.075C263.678 343.157 263.35 343.366 262.97 343.675L271.21 354.026C270.847 354.321 270.544 354.513 270.445 354.575C270.309 354.66 270.204 354.72 270.152 354.749C270.05 354.806 269.99 354.836 270.006 354.828C270.03 354.816 270.119 354.772 270.297 354.689C270.641 354.53 271.11 354.319 271.622 354.092C271.872 353.981 272.123 353.87 272.364 353.764C272.602 353.659 272.834 353.556 273.037 353.467C273.233 353.379 273.431 353.291 273.593 353.217C273.668 353.182 273.78 353.131 273.897 353.074C273.949 353.049 274.06 352.995 274.193 352.924C274.257 352.89 274.381 352.823 274.533 352.734C274.594 352.698 275.033 352.444 275.53 352.04L267.29 341.689ZM262.97 343.675C263.152 343.527 263.299 343.422 263.359 343.379C263.432 343.327 263.489 343.289 263.519 343.269C263.576 343.231 263.608 343.211 263.597 343.218C263.577 343.23 263.514 343.269 263.393 343.341C263.159 343.481 262.828 343.674 262.44 343.899C261.669 344.344 260.77 344.855 260.177 345.19L266.162 357.078C266.782 356.728 267.731 356.189 268.561 355.709C268.973 355.471 269.381 355.233 269.713 355.035C269.876 354.937 270.053 354.83 270.217 354.728C270.298 354.677 270.407 354.608 270.526 354.528C270.585 354.489 270.879 354.295 271.21 354.026L262.97 343.675ZM258.688 346.27L252.544 351.877L261.507 361.607L267.65 355.999L258.688 346.27ZM252.095 352.321L248.826 355.803L258.688 364.645L261.957 361.163L252.095 352.321ZM247.323 358.077C247.142 358.493 246.867 359.121 246.63 359.653C246.51 359.923 246.41 360.145 246.341 360.296C246.304 360.376 246.29 360.405 246.293 360.399C246.293 360.399 246.315 360.354 246.351 360.284C246.369 360.249 246.405 360.179 246.455 360.09C246.488 360.03 246.606 359.82 246.78 359.56L258.3 366.318C258.584 365.893 258.774 365.512 258.774 365.512C258.831 365.403 258.878 365.307 258.907 365.246C258.968 365.119 259.03 364.985 259.083 364.872C259.191 364.636 259.32 364.348 259.448 364.06C259.707 363.478 260 362.81 260.191 362.371L247.323 358.077ZM246.78 359.56C246.57 359.874 246.426 360.139 246.4 360.187C246.346 360.287 246.302 360.372 246.275 360.424C246.22 360.532 246.171 360.632 246.136 360.706C246.061 360.861 245.979 361.037 245.9 361.212C245.738 361.565 245.54 362.009 245.348 362.457C245.163 362.887 244.948 363.402 244.772 363.868C244.69 364.085 244.569 364.415 244.463 364.773C244.413 364.939 244.321 365.262 244.248 365.658C244.247 365.664 243.909 367.128 244.367 368.758L257.985 363.756C258.134 364.288 258.187 364.749 258.208 365.061C258.229 365.384 258.223 365.658 258.212 365.857C258.191 366.243 258.141 366.547 258.111 366.711C258.051 367.038 257.981 367.275 257.962 367.339C257.916 367.492 257.889 367.554 257.924 367.461C257.982 367.308 258.093 367.035 258.245 366.684C258.389 366.349 258.537 366.015 258.651 365.767C258.708 365.641 258.746 365.561 258.763 365.525C258.774 365.504 258.763 365.526 258.739 365.573C258.728 365.596 258.697 365.656 258.653 365.736C258.638 365.763 258.503 366.013 258.299 366.318L246.78 359.56ZM244.367 368.758C244.113 367.852 244.123 367.091 244.131 366.813C244.142 366.453 244.179 366.166 244.203 366.006C244.25 365.686 244.31 365.445 244.331 365.359C244.359 365.248 244.383 365.167 244.394 365.131C244.406 365.091 244.414 365.066 244.416 365.061C244.418 365.054 244.41 365.077 244.388 365.141C244.366 365.202 244.337 365.282 244.3 365.384C244.145 365.804 243.909 366.415 243.623 367.14C243.057 368.575 242.364 370.286 241.897 371.424L254.894 375.414C255.375 374.239 256.097 372.459 256.697 370.937C256.994 370.183 257.279 369.448 257.492 368.87C257.595 368.592 257.709 368.275 257.804 367.982C257.847 367.85 257.924 367.606 257.995 367.324C258.028 367.193 258.096 366.915 258.147 366.567C258.173 366.393 258.212 366.094 258.222 365.724C258.231 365.436 258.241 364.667 257.985 363.756L244.367 368.758ZM241.641 372.154L240.598 375.695L254.107 378.225L255.15 374.684L241.641 372.154ZM240.959 374.722L239.633 377.663L252.42 382.139L253.746 379.198L240.959 374.722ZM239.439 378.134L238.146 381.602L251.321 385.136L252.614 381.668L239.439 378.134ZM238.596 380.615L237.121 383.332L249.397 388.84L250.872 386.123L238.596 380.615ZM237.235 383.13L234.952 387.056L247 392.968L249.283 389.042L237.235 383.13ZM235.098 386.814L230.91 393.46L242.666 399.855L246.854 393.209L235.098 386.814ZM231.342 392.841L229.071 395.789L239.963 403.423L242.233 400.474L231.342 392.841ZM230.397 394.431L226.845 397.313L235.085 407.664L238.637 404.782L230.397 394.431ZM226.002 398.101L220.804 403.702L230.729 412.477L235.928 406.876L226.002 398.101ZM221.814 402.781L218.558 405.286L226.463 415.902L229.719 413.398L221.814 402.781ZM220.401 404.22L215.207 406.362L219.425 419.11L224.619 416.968L220.401 404.22ZM214.941 406.478L210.083 408.693L214.833 421.21L219.691 418.995L214.941 406.478ZM211.715 408.156L205.752 409.402L207.239 422.993L213.201 421.747L211.715 408.156ZM206.179 409.326C205.124 409.483 203.531 409.719 202.18 409.915C201.503 410.013 200.899 410.099 200.457 410.161C200.233 410.192 200.071 410.214 199.969 410.227C199.915 410.234 199.904 410.235 199.92 410.233C199.927 410.232 199.969 410.227 200.031 410.222C200.032 410.222 200.271 410.199 200.575 410.197L199.177 424.099C199.494 424.097 199.754 424.073 199.784 424.07C199.874 424.062 199.952 424.054 200.002 424.048C200.105 424.037 200.21 424.024 200.297 424.013C200.477 423.99 200.701 423.959 200.942 423.926C201.429 423.858 202.069 423.767 202.756 423.667C204.133 423.467 205.746 423.229 206.812 423.07L206.179 409.326ZM200.575 410.197L196.022 410.23L194.624 424.132L199.177 424.099L200.575 410.197ZM196.022 410.23C196.339 410.227 196.577 410.248 196.643 410.254C196.741 410.263 196.813 410.271 196.842 410.275C196.9 410.282 196.921 410.286 196.884 410.28C196.815 410.269 196.686 410.247 196.485 410.209C196.092 410.136 195.576 410.035 195.028 409.926C194.502 409.821 193.933 409.707 193.507 409.623C193.295 409.581 193.083 409.541 192.909 409.509C192.827 409.494 192.715 409.474 192.6 409.455C192.546 409.447 192.448 409.432 192.331 409.417C192.272 409.409 192.176 409.398 192.057 409.388C191.972 409.38 191.717 409.359 191.389 409.361L189.991 423.264C189.668 423.266 189.42 423.245 189.344 423.238C189.234 423.229 189.149 423.218 189.103 423.213C189.012 423.201 188.947 423.191 188.932 423.189C188.897 423.183 188.891 423.181 188.938 423.19C189.024 423.206 189.165 423.233 189.368 423.273C189.774 423.352 190.288 423.456 190.856 423.569C191.403 423.677 191.991 423.793 192.472 423.883C192.708 423.927 192.958 423.972 193.182 424.008C193.29 424.026 193.436 424.048 193.591 424.068C193.628 424.073 194.081 424.136 194.624 424.132L196.022 410.23ZM191.389 409.361C191.758 409.358 192.041 409.386 192.147 409.397C192.283 409.411 192.391 409.427 192.453 409.436C192.577 409.455 192.668 409.472 192.7 409.479C192.771 409.493 192.809 409.502 192.787 409.497C192.755 409.489 192.673 409.47 192.527 409.433C192.247 409.363 191.851 409.261 191.392 409.141C190.481 408.902 189.402 408.614 188.687 408.421L183.657 421.863C184.39 422.061 185.501 422.358 186.453 422.607C186.925 422.731 187.378 422.848 187.731 422.936C187.903 422.979 188.084 423.024 188.243 423.06C188.318 423.077 188.434 423.103 188.564 423.129C188.625 423.141 188.741 423.163 188.884 423.184C188.902 423.187 189.382 423.268 189.991 423.264L191.389 409.361ZM191.34 409.899C191.054 409.627 190.62 409.21 190.253 408.848C190.066 408.665 189.918 408.517 189.823 408.419C189.772 408.367 189.763 408.356 189.779 408.374C189.786 408.382 189.823 408.423 189.876 408.485C189.903 408.518 189.947 408.57 190 408.639C190.047 408.7 190.137 408.818 190.241 408.975L178.201 417.429C178.505 417.886 178.841 418.243 178.85 418.253C178.959 418.372 179.069 418.488 179.161 418.582C179.348 418.775 179.569 418.994 179.779 419.201C180.207 419.622 180.689 420.085 181.004 420.385L191.34 409.899ZM190.241 408.975C189.883 408.435 189.516 408.079 189.417 407.982C189.261 407.831 189.125 407.715 189.044 407.647C188.88 407.51 188.731 407.399 188.641 407.333C188.45 407.192 188.245 407.052 188.07 406.935C187.708 406.692 187.256 406.401 186.802 406.112C185.883 405.528 184.814 404.867 184.11 404.436L175.786 416.466C176.457 416.877 177.465 417.501 178.309 418.038C178.736 418.309 179.087 418.536 179.323 418.694C179.447 418.778 179.489 418.808 179.478 418.8C179.478 418.8 179.402 418.745 179.293 418.654C179.239 418.609 179.126 418.513 178.988 418.379C178.917 418.31 178.814 418.206 178.695 418.072C178.587 417.949 178.401 417.729 178.201 417.429L190.241 408.975ZM184.007 404.374L179.062 401.478L170.945 413.632L175.89 416.529L184.007 404.374ZM179.78 401.971L171.198 395.116L161.645 406.285L170.227 413.14L179.78 401.971ZM171.177 395.1L166.566 391.45L157.054 402.652L161.666 406.302L171.177 395.1ZM166.079 391.102L164.224 389.913L155.687 401.81L157.542 402.999L166.079 391.102ZM384.758 188.053L382.976 189.834L392.477 199.049L394.258 197.268L384.758 188.053ZM384.529 188.618L381.47 190.466L387.865 202.114L390.924 200.266L384.529 188.618Z" fill="black" mask="url(#path-1-outside-1_158_7)"/>
<mask id="path-3-outside-2_158_7" maskUnits="userSpaceOnUse" x="159.48" y="266.765" width="147.359" height="146.797" fill="black">
<rect fill="white" x="159.48" y="266.765" width="147.359" height="146.797"/>
<path d="M242.404 295.118L244.782 287.033L247.929 295.739L248.873 299.075L249.695 302.459L251.197 307.745L252.86 312.299C253.31 313.602 253.661 314.747 254.29 316.511C254.373 316.744 254.518 317.742 255.357 319.358L255.981 320.902L256.882 323.155L257.962 326.411L259.532 329.535L262.874 332.415L266.551 333.622L270.181 334.112L273.595 333.384L276.522 332.951L279.856 331.251L283.799 329.042L294.053 324.583L288.045 327.58C287.701 328.241 286.945 329.631 286.677 329.899C286.408 330.167 285.712 331.243 285.397 331.748L283.166 334.545L281.038 336.666L277.656 339.761L274.753 341.785L272.554 343.499L269.755 344.952L266.388 346.396L263.342 347.713L260.063 349.357L256.593 350.81C255.62 351.812 253.35 353.641 253.177 353.737C253.005 353.833 251.808 355.229 251.091 355.817C250.52 356.513 249.222 357.983 249.276 357.913C250.169 356.736 248.054 358.971 248.081 359.295L246.396 361.739L244.221 365.818L242.141 369.993L240.533 374.081L238.701 378.391L235.725 384.797L233.741 389.068L231.502 392.638L229.982 396.255L227.655 398.957L224.776 401.445L222.337 402.92L219.914 402.851L218.187 401.132L217.732 398.337L217.677 394.379L217.582 389.601L217.248 384.584L216.665 381.439L216.026 378.349L215.099 376.311L213.372 374.593L210.494 371.728L207.281 368.53L204.235 364.495L200.158 360.437L196.657 356.952L192.532 352.847C192.047 352.439 190.985 351.485 190.614 350.937C190.243 350.39 190.199 348.294 190.223 347.314L189.896 343.532L190.976 340.257L192.584 336.839L196.111 333.323L198.406 331.036L201.085 329.13L205.083 326.864L209.513 325.028L213.151 323.408L217.333 321.436L221.068 319.243L224.946 317.861L228.129 315.453L230.816 312.774L233.916 309.684L235.958 305.505L237.729 303.298L239.838 299.708L242.404 295.118Z"/>
</mask>
<path d="M242.404 295.118L244.782 287.033L247.929 295.739L248.873 299.075L249.695 302.459L251.197 307.745L252.86 312.299C253.31 313.602 253.661 314.747 254.29 316.511C254.373 316.744 254.518 317.742 255.357 319.358L255.981 320.902L256.882 323.155L257.962 326.411L259.532 329.535L262.874 332.415L266.551 333.622L270.181 334.112L273.595 333.384L276.522 332.951L279.856 331.251L283.799 329.042L294.053 324.583L288.045 327.58C287.701 328.241 286.945 329.631 286.677 329.899C286.408 330.167 285.712 331.243 285.397 331.748L283.166 334.545L281.038 336.666L277.656 339.761L274.753 341.785L272.554 343.499L269.755 344.952L266.388 346.396L263.342 347.713L260.063 349.357L256.593 350.81C255.62 351.812 253.35 353.641 253.177 353.737C253.005 353.833 251.808 355.229 251.091 355.817C250.52 356.513 249.222 357.983 249.276 357.913C250.169 356.736 248.054 358.971 248.081 359.295L246.396 361.739L244.221 365.818L242.141 369.993L240.533 374.081L238.701 378.391L235.725 384.797L233.741 389.068L231.502 392.638L229.982 396.255L227.655 398.957L224.776 401.445L222.337 402.92L219.914 402.851L218.187 401.132L217.732 398.337L217.677 394.379L217.582 389.601L217.248 384.584L216.665 381.439L216.026 378.349L215.099 376.311L213.372 374.593L210.494 371.728L207.281 368.53L204.235 364.495L200.158 360.437L196.657 356.952L192.532 352.847C192.047 352.439 190.985 351.485 190.614 350.937C190.243 350.39 190.199 348.294 190.223 347.314L189.896 343.532L190.976 340.257L192.584 336.839L196.111 333.323L198.406 331.036L201.085 329.13L205.083 326.864L209.513 325.028L213.151 323.408L217.333 321.436L221.068 319.243L224.946 317.861L228.129 315.453L230.816 312.774L233.916 309.684L235.958 305.505L237.729 303.298L239.838 299.708L242.404 295.118Z" fill="white"/>
<path d="M244.782 287.033L250.438 285.004L244.194 267.732L239.012 285.35L244.782 287.033ZM242.404 295.118L247.656 298.031L247.984 297.445L248.173 296.802L242.404 295.118ZM239.838 299.708L245.027 302.733L245.059 302.677L245.091 302.621L239.838 299.708ZM237.729 303.298L242.425 307.037L242.698 306.698L242.918 306.322L237.729 303.298ZM235.958 305.505L231.263 301.765L230.845 302.285L230.553 302.884L235.958 305.505ZM233.916 309.684L238.169 313.917L238.881 313.207L239.322 312.305L233.916 309.684ZM228.129 315.453L231.765 320.221L232.092 319.974L232.381 319.686L228.129 315.453ZM224.946 317.861L226.97 323.5L227.844 323.188L228.582 322.63L224.946 317.861ZM221.068 319.243L219.043 313.604L218.506 313.796L218.014 314.085L221.068 319.243ZM217.333 321.436L219.905 326.849L220.152 326.733L220.387 326.594L217.333 321.436ZM213.151 323.408L215.605 328.874L215.664 328.848L215.723 328.82L213.151 323.408ZM209.513 325.028L211.822 330.557L211.895 330.526L211.967 330.495L209.513 325.028ZM205.083 326.864L202.774 321.335L202.432 321.477L202.11 321.659L205.083 326.864ZM201.085 329.13L198.112 323.925L197.843 324.077L197.59 324.257L201.085 329.13ZM198.406 331.036L194.912 326.163L194.506 326.452L194.153 326.803L198.406 331.036ZM192.584 336.839L188.331 332.606L187.587 333.348L187.14 334.298L192.584 336.839ZM190.976 340.257L185.532 337.717L185.378 338.044L185.265 338.388L190.976 340.257ZM189.896 343.532L184.184 341.662L183.801 342.825L183.906 344.045L189.896 343.532ZM190.223 347.314L196.233 347.461L196.241 347.13L196.213 346.8L190.223 347.314ZM190.614 350.937L185.63 354.286L185.63 354.286L190.614 350.937ZM192.532 352.847L196.782 348.611L196.605 348.435L196.413 348.274L192.532 352.847ZM204.235 364.495L209.041 360.897L208.785 360.558L208.485 360.259L204.235 364.495ZM207.281 368.53L202.475 372.128L202.731 372.467L203.031 372.766L207.281 368.53ZM215.099 376.311L220.574 373.84L220.123 372.846L219.348 372.075L215.099 376.311ZM216.026 378.349L221.914 377.141L221.778 376.486L221.502 375.878L216.026 378.349ZM216.665 381.439L222.576 380.351L222.565 380.291L222.553 380.23L216.665 381.439ZM217.248 384.584L223.246 384.187L223.223 383.839L223.159 383.497L217.248 384.584ZM217.582 389.601L223.593 389.483L223.59 389.343L223.581 389.204L217.582 389.601ZM217.677 394.379L223.688 394.296L223.688 394.279L223.688 394.261L217.677 394.379ZM217.732 398.337L211.721 398.42L211.727 398.861L211.798 399.296L217.732 398.337ZM218.187 401.132L212.253 402.091L212.564 404.001L213.938 405.368L218.187 401.132ZM219.914 402.851L215.665 407.087L217.354 408.768L219.741 408.837L219.914 402.851ZM222.337 402.92L222.164 408.906L223.94 408.957L225.458 408.038L222.337 402.92ZM224.776 401.445L227.897 406.563L228.331 406.3L228.715 405.968L224.776 401.445ZM227.655 398.957L231.594 403.48L231.929 403.191L232.217 402.856L227.655 398.957ZM229.982 396.255L234.545 400.154L235.162 399.438L235.528 398.567L229.982 396.255ZM231.502 392.638L226.403 389.465L226.145 389.877L225.956 390.326L231.502 392.638ZM233.741 389.068L238.84 392.241L239.039 391.923L239.197 391.582L233.741 389.068ZM235.725 384.797L241.181 387.312L241.181 387.312L235.725 384.797ZM238.701 378.391L244.157 380.906L244.199 380.816L244.237 380.725L238.701 378.391ZM240.533 374.081L246.069 376.415L246.101 376.341L246.13 376.265L240.533 374.081ZM242.141 369.993L236.756 367.332L236.639 367.566L236.544 367.809L242.141 369.993ZM244.221 365.818L238.911 363.009L238.872 363.082L238.835 363.157L244.221 365.818ZM246.396 361.739L241.44 358.349L241.247 358.629L241.087 358.929L246.396 361.739ZM248.081 359.295L253.037 362.685L254.247 360.929L254.073 358.807L248.081 359.295ZM249.276 357.913L244.48 354.302L244.48 354.302L249.276 357.913ZM251.091 355.817L247.272 351.192L246.811 351.569L246.434 352.03L251.091 355.817ZM253.177 353.737L250.254 348.504L250.254 348.504L253.177 353.737ZM256.593 350.81L254.264 345.289L253.129 345.765L252.272 346.646L256.593 350.81ZM260.063 349.357L262.393 354.878L262.582 354.798L262.766 354.706L260.063 349.357ZM263.342 347.713L260.948 342.22L260.792 342.288L260.639 342.365L263.342 347.713ZM266.388 346.396L264.01 340.897L264.002 340.9L263.995 340.903L266.388 346.396ZM269.755 344.952L272.134 350.451L272.337 350.364L272.532 350.262L269.755 344.952ZM272.554 343.499L275.331 348.81L275.823 348.555L276.259 348.215L272.554 343.499ZM274.753 341.785L271.306 336.879L271.174 336.971L271.048 337.069L274.753 341.785ZM277.656 339.761L281.103 344.667L281.43 344.439L281.724 344.171L277.656 339.761ZM281.038 336.666L285.106 341.075L285.2 340.989L285.291 340.899L281.038 336.666ZM283.166 334.545L287.418 338.778L287.66 338.537L287.873 338.27L283.166 334.545ZM285.397 331.748L290.104 335.473L290.321 335.201L290.504 334.907L285.397 331.748ZM288.045 327.58L285.353 322.225L283.605 323.097L282.706 324.826L288.045 327.58ZM294.053 324.583L296.745 329.938L291.649 319.095L294.053 324.583ZM283.799 329.042L281.394 323.553L281.115 323.675L280.85 323.823L283.799 329.042ZM279.856 331.251L282.595 336.582L282.701 336.528L282.805 336.47L279.856 331.251ZM276.522 332.951L277.405 338.874L278.381 338.73L279.26 338.282L276.522 332.951ZM273.595 333.384L272.712 327.461L272.523 327.489L272.337 327.528L273.595 333.384ZM270.181 334.112L269.373 340.046L270.413 340.186L271.44 339.967L270.181 334.112ZM266.551 333.622L264.67 339.309L265.195 339.482L265.743 339.556L266.551 333.622ZM262.874 332.415L258.94 336.943L259.85 337.727L260.992 338.102L262.874 332.415ZM259.532 329.535L254.156 332.216L254.693 333.283L255.598 334.063L259.532 329.535ZM257.962 326.411L252.253 328.289L252.39 328.702L252.586 329.091L257.962 326.411ZM256.882 323.155L262.59 321.276L262.534 321.107L262.467 320.941L256.882 323.155ZM255.981 320.902L261.567 318.688L261.563 318.677L261.558 318.666L255.981 320.902ZM255.357 319.358L260.935 317.122L260.828 316.858L260.697 316.606L255.357 319.358ZM254.29 316.511L248.624 318.514L248.624 318.514L254.29 316.511ZM252.86 312.299L258.544 310.351L258.527 310.302L258.51 310.253L252.86 312.299ZM251.197 307.745L245.413 309.376L245.473 309.586L245.547 309.791L251.197 307.745ZM249.695 302.459L243.853 303.868L243.88 303.979L243.911 304.089L249.695 302.459ZM248.873 299.075L254.716 297.665L254.689 297.557L254.659 297.45L248.873 299.075ZM247.929 295.739L253.715 294.114L253.658 293.91L253.585 293.71L247.929 295.739ZM239.012 285.35L236.634 293.435L248.173 296.802L250.551 288.716L239.012 285.35ZM237.151 292.206L234.586 296.796L245.091 302.621L247.656 298.031L237.151 292.206ZM234.649 296.684L232.541 300.274L242.918 306.322L245.027 302.733L234.649 296.684ZM233.034 299.559L231.263 301.765L240.654 309.244L242.425 307.037L233.034 299.559ZM230.553 302.884L228.51 307.063L239.322 312.305L241.364 308.125L230.553 302.884ZM229.663 305.451L226.563 308.542L235.068 317.007L238.169 313.917L229.663 305.451ZM226.563 308.542L223.876 311.22L232.381 319.686L235.068 317.007L226.563 308.542ZM224.492 310.685L221.309 313.093L228.582 322.63L231.765 320.221L224.492 310.685ZM222.921 312.223L219.043 313.604L223.092 324.881L226.97 323.5L222.921 312.223ZM218.014 314.085L214.279 316.278L220.387 326.594L224.122 324.401L218.014 314.085ZM214.762 316.024L210.58 317.995L215.723 328.82L219.905 326.849L214.762 316.024ZM210.698 317.941L207.059 319.561L211.967 330.495L215.605 328.874L210.698 317.941ZM207.203 319.499L202.774 321.335L207.393 332.393L211.822 330.557L207.203 319.499ZM202.11 321.659L198.112 323.925L204.058 334.334L208.056 332.069L202.11 321.659ZM197.59 324.257L194.912 326.163L201.9 335.908L204.579 334.002L197.59 324.257ZM194.153 326.803L191.858 329.091L200.363 337.556L202.658 335.268L194.153 326.803ZM191.858 329.091L188.331 332.606L196.836 341.072L200.363 337.556L191.858 329.091ZM187.14 334.298L185.532 337.717L196.42 342.798L198.028 339.38L187.14 334.298ZM185.265 338.388L184.184 341.662L195.607 345.401L196.687 342.126L185.265 338.388ZM183.906 344.045L184.233 347.828L196.213 346.8L195.886 343.018L183.906 344.045ZM184.213 347.167C184.197 347.801 184.202 348.777 184.276 349.74C184.312 350.215 184.373 350.81 184.49 351.412C184.56 351.774 184.802 353.063 185.63 354.286L195.598 347.588C195.808 347.899 195.944 348.17 196.028 348.354C196.114 348.543 196.169 348.699 196.203 348.803C196.269 349.002 196.293 349.13 196.296 349.144C196.301 349.169 196.297 349.153 196.289 349.089C196.281 349.027 196.273 348.943 196.265 348.835C196.248 348.617 196.237 348.362 196.232 348.103C196.227 347.844 196.229 347.617 196.233 347.461L184.213 347.167ZM185.63 354.286C186.209 355.142 186.994 355.906 187.358 356.255C187.838 356.717 188.325 357.145 188.651 357.42L196.413 348.274C196.255 348.141 195.968 347.888 195.703 347.634C195.572 347.508 195.481 347.414 195.429 347.358C195.405 347.332 195.405 347.331 195.425 347.355C195.44 347.373 195.507 347.454 195.598 347.588L185.63 354.286ZM188.283 357.083L192.408 361.188L200.907 352.717L196.782 348.611L188.283 357.083ZM192.408 361.188L195.909 364.673L204.408 356.201L200.907 352.717L192.408 361.188ZM195.909 364.673L199.986 368.731L208.485 360.259L204.408 356.201L195.909 364.673ZM199.43 368.094L202.475 372.128L212.086 364.932L209.041 360.897L199.43 368.094ZM203.031 372.766L206.245 375.964L214.744 367.493L211.53 364.294L203.031 372.766ZM206.245 375.964L209.123 378.829L217.621 370.357L214.744 367.493L206.245 375.964ZM209.123 378.829L210.849 380.547L219.348 372.075L217.621 370.357L209.123 378.829ZM209.623 378.783L210.55 380.821L221.502 375.878L220.574 373.84L209.623 378.783ZM210.137 379.557L210.776 382.647L222.553 380.23L221.914 377.141L210.137 379.557ZM210.753 382.526L211.336 385.671L223.159 383.497L222.576 380.351L210.753 382.526ZM211.249 384.981L211.584 389.998L223.581 389.204L223.246 384.187L211.249 384.981ZM211.572 389.719L211.667 394.498L223.688 394.261L223.593 389.483L211.572 389.719ZM211.666 394.462L211.721 398.42L223.744 398.254L223.688 394.296L211.666 394.462ZM211.798 399.296L212.253 402.091L224.122 400.174L223.667 397.379L211.798 399.296ZM213.938 405.368L215.665 407.087L224.163 398.615L222.437 396.897L213.938 405.368ZM219.741 408.837L222.164 408.906L222.509 396.935L220.087 396.865L219.741 408.837ZM225.458 408.038L227.897 406.563L221.655 396.327L219.216 397.802L225.458 408.038ZM228.715 405.968L231.594 403.48L223.715 394.434L220.836 396.921L228.715 405.968ZM232.217 402.856L234.545 400.154L225.419 392.356L223.092 395.058L232.217 402.856ZM235.528 398.567L237.047 394.95L225.956 390.326L224.436 393.943L235.528 398.567ZM236.6 395.811L238.84 392.241L228.643 385.895L226.403 389.465L236.6 395.811ZM239.197 391.582L241.181 387.312L230.269 382.282L228.285 386.553L239.197 391.582ZM241.181 387.312L244.157 380.906L233.245 375.876L230.269 382.282L241.181 387.312ZM244.237 380.725L246.069 376.415L234.997 371.746L233.165 376.057L244.237 380.725ZM246.13 376.265L247.738 372.178L236.544 367.809L234.936 371.896L246.13 376.265ZM247.526 372.655L249.606 368.48L238.835 363.157L236.756 367.332L247.526 372.655ZM249.53 368.627L251.706 364.548L241.087 358.929L238.911 363.009L249.53 368.627ZM251.352 365.128L253.037 362.685L243.125 355.905L241.44 358.349L251.352 365.128ZM254.073 358.807C254.19 360.244 253.736 361.304 253.67 361.466C253.527 361.817 253.384 362.062 253.331 362.151C253.216 362.344 253.137 362.441 253.169 362.4C253.21 362.345 253.32 362.213 253.447 362.075C253.505 362.011 253.533 361.983 253.526 361.99C253.523 361.993 253.485 362.03 253.421 362.089C253.403 362.105 253.182 362.308 252.851 362.533C252.75 362.602 252.226 362.964 251.46 363.23C251.102 363.354 250.172 363.647 248.954 363.538C247.479 363.406 245.607 362.652 244.416 360.781C243.434 359.236 243.458 357.744 243.498 357.164C243.546 356.489 243.699 355.974 243.779 355.731C243.943 355.231 244.137 354.872 244.195 354.766C244.413 354.366 244.615 354.123 244.48 354.302L254.071 361.524C254.159 361.408 254.491 360.978 254.764 360.476C254.835 360.345 255.039 359.966 255.208 359.451C255.29 359.2 255.445 358.679 255.493 357.999C255.534 357.414 255.557 355.918 254.573 354.371C253.381 352.497 251.505 351.741 250.027 351.609C248.805 351.5 247.871 351.793 247.507 351.92C246.73 352.189 246.192 352.56 246.073 352.641C245.508 353.025 245.072 353.474 245.04 353.505C244.873 353.671 244.708 353.846 244.559 354.008C244.272 354.322 243.915 354.735 243.595 355.154C243.446 355.35 243.214 355.665 242.992 356.038C242.885 356.217 242.7 356.542 242.529 356.96C242.436 357.19 241.968 358.306 242.089 359.783L254.073 358.807ZM244.48 354.302C244.454 354.336 244.402 354.406 244.338 354.496C244.321 354.521 244.119 354.804 243.92 355.192C243.905 355.221 243.455 356.032 243.311 357.155C243.262 357.944 243.674 360.094 244.339 361.335C245.573 362.634 248.37 363.836 249.644 363.892C250.344 363.808 251.41 363.513 251.782 363.358C252.009 363.248 252.38 363.043 252.525 362.953C252.802 362.775 253.003 362.614 253.08 362.551C253.254 362.409 253.382 362.288 253.419 362.253C253.475 362.2 253.519 362.156 253.543 362.132C253.593 362.082 253.632 362.041 253.649 362.023C253.711 361.957 253.767 361.896 253.781 361.88C253.833 361.823 253.897 361.751 253.962 361.677C254.097 361.525 254.283 361.314 254.486 361.082C254.875 360.636 255.397 360.031 255.748 359.604L246.434 352.03C246.214 352.298 245.802 352.777 245.413 353.223C245.226 353.437 245.062 353.624 244.951 353.749C244.893 353.814 244.86 353.851 244.848 353.864C244.832 353.882 244.864 353.846 244.912 353.795C244.927 353.78 244.962 353.742 245.01 353.694C245.034 353.671 245.076 353.628 245.131 353.576C245.168 353.542 245.295 353.421 245.469 353.279C245.546 353.217 245.747 353.055 246.024 352.878C246.169 352.788 246.539 352.583 246.766 352.473C247.138 352.318 248.204 352.023 248.904 351.939C250.178 351.995 252.975 353.197 254.209 354.496C254.874 355.737 255.286 357.887 255.237 358.676C255.093 359.799 254.643 360.609 254.628 360.638C254.43 361.026 254.227 361.308 254.211 361.332C254.148 361.422 254.096 361.491 254.071 361.524L244.48 354.302ZM254.91 360.442C255.315 360.109 255.686 359.751 255.948 359.49C256.229 359.21 256.501 358.924 256.717 358.695C256.967 358.431 257.097 358.291 257.221 358.162C257.28 358.101 257.275 358.107 257.234 358.147C257.215 358.165 257.141 358.235 257.031 358.328C256.975 358.376 256.88 358.455 256.755 358.548C256.648 358.628 256.417 358.794 256.101 358.969L250.254 348.504C249.695 348.814 249.305 349.152 249.236 349.211C249.089 349.335 248.971 349.446 248.901 349.513C248.759 349.649 248.627 349.785 248.538 349.878C248.367 350.055 248.121 350.319 247.959 350.49C247.765 350.695 247.593 350.875 247.443 351.025C247.273 351.194 247.225 351.23 247.272 351.192L254.91 360.442ZM256.101 358.969C256.46 358.77 256.746 358.559 256.747 358.558C256.835 358.495 256.917 358.434 256.979 358.386C257.108 358.288 257.253 358.175 257.398 358.06C257.693 357.825 258.062 357.525 258.452 357.199C259.169 356.598 260.191 355.717 260.914 354.974L252.272 346.646C252.177 346.745 251.976 346.936 251.665 347.213C251.371 347.475 251.04 347.759 250.719 348.028C250.398 348.296 250.106 348.534 249.896 348.7C249.789 348.785 249.72 348.839 249.689 348.863C249.67 348.877 249.685 348.866 249.72 348.84C249.738 348.828 249.781 348.797 249.841 348.756C249.875 348.734 250.035 348.626 250.254 348.504L256.101 358.969ZM258.922 356.33L262.393 354.878L257.734 343.837L254.264 345.289L258.922 356.33ZM262.766 354.706L266.045 353.062L260.639 342.365L257.36 344.008L262.766 354.706ZM265.735 353.206L268.782 351.889L263.995 340.903L260.948 342.22L265.735 353.206ZM268.767 351.896L272.134 350.451L267.376 339.452L264.01 340.897L268.767 351.896ZM272.532 350.262L275.331 348.81L269.776 338.189L266.978 339.641L272.532 350.262ZM276.259 348.215L278.458 346.501L271.048 337.069L268.848 338.784L276.259 348.215ZM278.2 346.691L281.103 344.667L274.209 334.855L271.306 336.879L278.2 346.691ZM281.724 344.171L285.106 341.075L276.971 332.256L273.589 335.351L281.724 344.171ZM285.291 340.899L287.418 338.778L278.913 330.313L276.786 332.433L285.291 340.899ZM287.873 338.27L290.104 335.473L280.69 328.023L278.459 330.82L287.873 338.27ZM290.504 334.907C290.633 334.7 290.845 334.368 291.042 334.077C291.141 333.93 291.213 333.829 291.253 333.774C291.273 333.747 291.266 333.758 291.238 333.793C291.222 333.812 291.192 333.849 291.148 333.899C291.107 333.946 291.032 334.029 290.929 334.132L282.424 325.666C281.792 326.296 281.21 327.179 281.066 327.392C280.769 327.832 280.476 328.291 280.29 328.589L290.504 334.907ZM290.929 334.132C291.528 333.535 291.949 332.854 292.027 332.733C292.215 332.438 292.399 332.125 292.555 331.853C292.871 331.302 293.185 330.715 293.383 330.334L282.706 324.826C282.56 325.106 282.325 325.545 282.11 325.921C282 326.113 281.924 326.239 281.884 326.301C281.864 326.333 281.879 326.307 281.924 326.245C281.947 326.213 281.994 326.15 282.061 326.067C282.122 325.992 282.246 325.844 282.424 325.666L290.929 334.132ZM290.736 332.935L296.745 329.938L291.362 319.229L285.353 322.225L290.736 332.935ZM291.649 319.095L281.394 323.553L286.203 334.53L296.458 330.072L291.649 319.095ZM280.85 323.823L276.908 326.033L282.805 336.47L286.747 334.26L280.85 323.823ZM277.118 325.921L273.783 327.62L279.26 338.282L282.595 336.582L277.118 325.921ZM275.639 327.028L272.712 327.461L274.478 339.307L277.405 338.874L275.639 327.028ZM272.337 327.528L268.923 328.256L271.44 339.967L274.854 339.239L272.337 327.528ZM270.989 328.178L267.359 327.688L265.743 339.556L269.373 340.046L270.989 328.178ZM268.433 327.934L264.755 326.727L260.992 338.102L264.67 339.309L268.433 327.934ZM266.807 327.886L263.466 325.007L255.598 334.063L258.94 336.943L266.807 327.886ZM264.908 326.854L263.337 323.73L252.586 329.091L254.156 332.216L264.908 326.854ZM263.67 324.532L262.59 321.276L251.173 325.034L252.253 328.289L263.67 324.532ZM262.467 320.941L261.567 318.688L250.396 323.116L251.296 325.369L262.467 320.941ZM261.558 318.666L260.935 317.122L249.78 321.593L250.404 323.138L261.558 318.666ZM260.697 316.606C260.449 316.129 260.331 315.798 260.275 315.621C260.246 315.529 260.225 315.451 260.203 315.361C260.196 315.335 260.19 315.311 260.181 315.276C260.174 315.246 260.162 315.197 260.149 315.148C260.139 315.107 260.068 314.823 259.955 314.507L248.624 318.514C248.569 318.358 248.534 318.238 248.522 318.196C248.515 318.169 248.509 318.149 248.506 318.137C248.504 318.132 248.503 318.127 248.503 318.124C248.502 318.121 248.501 318.12 248.501 318.12C248.501 318.119 248.502 318.12 248.502 318.123C248.503 318.125 248.503 318.128 248.505 318.132C248.507 318.141 248.51 318.152 248.513 318.168C248.521 318.197 248.532 318.243 248.545 318.292C248.599 318.506 248.682 318.823 248.805 319.211C249.052 319.994 249.426 320.971 250.018 322.109L260.697 316.606ZM259.955 314.507C259.304 312.679 259.102 311.965 258.544 310.351L247.175 314.247C247.517 315.239 248.019 316.815 248.624 318.514L259.955 314.507ZM258.51 310.253L256.847 305.699L245.547 309.791L247.21 314.345L258.51 310.253ZM256.982 306.115L255.48 300.828L243.911 304.089L245.413 309.376L256.982 306.115ZM255.538 301.049L254.716 297.665L243.03 300.484L243.853 303.868L255.538 301.049ZM254.659 297.45L253.715 294.114L242.142 297.363L243.086 300.699L254.659 297.45ZM253.585 293.71L250.438 285.004L239.125 289.062L242.273 297.767L253.585 293.71Z" fill="black" mask="url(#path-3-outside-2_158_7)"/>
<path d="M163.848 370.584L160.307 374.114L163.851 377.641L182.111 395.816L185.655 399.344L189.196 395.814L201.011 384.036L204.552 380.506L201.009 376.979L182.748 358.804L179.204 355.277L175.663 358.807L163.848 370.584Z" fill="white" stroke="black" stroke-width="10"/>
<path d="M414.231 159.348L182.5 377.378" stroke="#504C4C"/>
<path d="M376.066 183.642L375.729 183.293L375.37 183.619L249.615 297.909L249.609 297.914L249.604 297.92L240.193 307.023L240.089 307.124L240.055 307.266L239.69 308.796L239.653 308.952L239.713 309.1L240.627 311.355L240.639 311.384L240.654 311.411L241.757 313.386L241.789 313.443L241.834 313.49L243.501 315.213L246.247 318.051L248.649 320.535L248.685 320.572L248.727 320.601L249.739 321.289L249.87 321.379L250.029 321.376L251.164 321.357L251.234 321.356L251.302 321.336L254.147 320.463L254.262 320.428L254.348 320.344L385.181 193.784L385.541 193.436L385.193 193.077L376.066 183.642Z" fill="#382407" stroke="black"/>
<path d="M420.439 156.113L184.394 379.107" stroke="#575454"/>
<path d="M406.741 162.637L180.72 375.538" stroke="#4E4A4A"/>
<path d="M398.364 167.08L178.659 373.871" stroke="#595555"/>
<path d="M389.907 171.205L177.671 372.157" stroke="#5D5656"/>
<path d="M425.795 154.295L186.831 380.706" stroke="#585555"/>
</svg>
