<svg width="473" height="403" viewBox="0 0 473 403" fill="none" xmlns="http://www.w3.org/2000/svg">
<g filter="url(#filter0_d_93_521)">
<path d="M9 254.24V258.26L10.2362 260.368L12.9404 263.136L16.5718 263.861L34.1879 264.52H35.1037H36.3833H37.9188H38.6866H39.4543H39.9662L40.478 264.233L41.5279 263.861L52.5766 263.136L83.8683 261.291L125.436 259.578L151.319 258.985L155.723 261.818L159.2 267.42L156.882 294.901L155.182 315.396L152.942 339.187L149.929 372.928L149.31 381.693L150.469 386.24L154.178 389.14C155.672 389.404 158.767 389.944 159.2 389.997C159.633 390.049 162.265 389.448 163.527 389.14L166.308 387.097L169.631 382.748L174.807 372.928L188.792 349.072L210.117 312.233L232.214 274.274L269.455 209.888L274.245 201.98V198.355L272.159 194.731L270.691 190.315V186.163L272.159 184.186L287.148 170.479L321.917 140.889L350.041 115.846L378.551 91.0015L411.388 62.7956L418.883 55.876L422.514 54.1625L428.386 53.0422L432.79 54.1625L437.735 55.876L439.928 53.0724L441.83 50.8016L444.302 46.9134L448.243 41.839L451.256 35.9737L453.651 32.5468L457.514 24.9682L459.214 21.08L462.073 17.06L463 13.3036L462.073 10.2062L459.214 6.97705L456.201 5H452.183L448.243 6.25213L437.194 11.5902L423.827 17.06L410.152 22.5298L406.752 24.441L405.719 26.2245L405.714 28.0912L405.709 29.4912L407.293 32.5468L408.607 37.3577L407.988 40.455L404.28 43.5524L384.346 59.8301L355.14 82.7638L326.012 106.159L300.206 126.786L280.195 142.339L255.007 162.636L249.753 165.997L245.272 166.722L239.322 164.943L235.305 163.295L230.514 164.02L180.216 184.186L140.811 199.805L72.9741 226.1L26.6161 244.684L14.4084 249.165L10.7771 251.076L9 254.24Z" fill="url(#paint0_linear_93_521)"/>
<path d="M9 254.24V258.26L10.2362 260.368L12.9404 263.136L16.5718 263.861L34.1879 264.52H35.1037H36.3833H37.9188H38.6866H39.4543H39.9662L40.478 264.233L41.5279 263.861L52.5766 263.136L83.8683 261.291L125.436 259.578L151.319 258.985L155.723 261.818L159.2 267.42L156.882 294.901L155.182 315.396L152.942 339.187L149.929 372.928L149.31 381.693L150.469 386.24L154.178 389.14C155.672 389.404 158.767 389.944 159.2 389.997C159.633 390.049 162.265 389.448 163.527 389.14L166.308 387.097L169.631 382.748L174.807 372.928L188.792 349.072L210.117 312.233L232.214 274.274L269.455 209.888L274.245 201.98V198.355L272.159 194.731L270.691 190.315V186.163L272.159 184.186L287.148 170.479L321.917 140.889L350.041 115.846L378.551 91.0015L411.388 62.7956L418.883 55.876L422.514 54.1625L428.386 53.0422L432.79 54.1625L437.735 55.876L439.928 53.0724L441.83 50.8016L444.302 46.9134L448.243 41.839L451.256 35.9737L453.651 32.5468L457.514 24.9682L459.214 21.08L462.073 17.06L463 13.3036L462.073 10.2062L459.214 6.97705L456.201 5H452.183L448.243 6.25213L437.194 11.5902L423.827 17.06L410.152 22.5298L406.752 24.441L405.719 26.2245L405.714 28.0912L405.709 29.4912L407.293 32.5468L408.607 37.3577L407.988 40.455L404.28 43.5524L384.346 59.8301L355.14 82.7638L326.012 106.159L300.206 126.786L280.195 142.339L255.007 162.636L249.753 165.997L245.272 166.722L239.322 164.943L235.305 163.295L230.514 164.02L180.216 184.186L140.811 199.805L72.9741 226.1L26.6161 244.684L14.4084 249.165L10.7771 251.076L9 254.24Z" fill="black"/>
<path d="M9 254.24V258.26L10.2362 260.368L12.9404 263.136L16.5718 263.861L34.1879 264.52H35.1037H36.3833H37.9188H38.6866H39.4543H39.9662L40.478 264.233L41.5279 263.861L52.5766 263.136L83.8683 261.291L125.436 259.578L151.319 258.985L155.723 261.818L159.2 267.42L156.882 294.901L155.182 315.396L152.942 339.187L149.929 372.928L149.31 381.693L150.469 386.24L154.178 389.14C155.672 389.404 158.767 389.944 159.2 389.997C159.633 390.049 162.265 389.448 163.527 389.14L166.308 387.097L169.631 382.748L174.807 372.928L188.792 349.072L210.117 312.233L232.214 274.274L269.455 209.888L274.245 201.98V198.355L272.159 194.731L270.691 190.315V186.163L272.159 184.186L287.148 170.479L321.917 140.889L350.041 115.846L378.551 91.0015L411.388 62.7956L418.883 55.876L422.514 54.1625L428.386 53.0422L432.79 54.1625L437.735 55.876L439.928 53.0724L441.83 50.8016L444.302 46.9134L448.243 41.839L451.256 35.9737L453.651 32.5468L457.514 24.9682L459.214 21.08L462.073 17.06L463 13.3036L462.073 10.2062L459.214 6.97705L456.201 5H452.183L448.243 6.25213L437.194 11.5902L423.827 17.06L410.152 22.5298L406.752 24.441L405.719 26.2245L405.714 28.0912L405.709 29.4912L407.293 32.5468L408.607 37.3577L407.988 40.455L404.28 43.5524L384.346 59.8301L355.14 82.7638L326.012 106.159L300.206 126.786L280.195 142.339L255.007 162.636L249.753 165.997L245.272 166.722L239.322 164.943L235.305 163.295L230.514 164.02L180.216 184.186L140.811 199.805L72.9741 226.1L26.6161 244.684L14.4084 249.165L10.7771 251.076L9 254.24Z" stroke="white" stroke-width="10"/>
</g>
<defs>
<filter id="filter0_d_93_521" x="0" y="0" width="472.181" height="403" filterUnits="userSpaceOnUse" color-interpolation-filters="sRGB">
<feFlood flood-opacity="0" result="BackgroundImageFix"/>
<feColorMatrix in="SourceAlpha" type="matrix" values="0 0 0 0 0 0 0 0 0 0 0 0 0 0 0 0 0 0 127 0" result="hardAlpha"/>
<feOffset dy="4"/>
<feGaussianBlur stdDeviation="2"/>
<feComposite in2="hardAlpha" operator="out"/>
<feColorMatrix type="matrix" values="0 0 0 0 0 0 0 0 0 0 0 0 0 0 0 0 0 0 0.25 0"/>
<feBlend mode="normal" in2="BackgroundImageFix" result="effect1_dropShadow_93_521"/>
<feBlend mode="normal" in="SourceGraphic" in2="effect1_dropShadow_93_521" result="shape"/>
</filter>
<linearGradient id="paint0_linear_93_521" x1="245.754" y1="-96.5137" x2="238.739" y2="390.039" gradientUnits="userSpaceOnUse">
<stop offset="0.00520833" stop-opacity="0.77"/>
<stop offset="0.614583" stop-color="#7DE2D1"/>
<stop offset="1"/>
</linearGradient>
</defs>
</svg>
