<svg width="270" height="349" viewBox="0 0 270 349" fill="none" xmlns="http://www.w3.org/2000/svg">
<path d="M81.2704 313.511C84.7867 317.032 92.298 329.179 92.5186 338.089L181.842 347L187.637 326.495L196.399 310.721L215.587 290.99L222.865 273.169L232.129 241.982L244.7 215.887L249.332 210.159L263.226 187.882L268 176.26L264.674 169.424L256.552 165.373L246.953 169.424L227.497 185.973C223.086 192.762 213.47 208.249 210.294 215.887C207.118 223.524 202.382 215.887 198.327 210.159L193.091 200.708L189.782 187.882L193.091 142.692L196.399 100.685C197.281 93.8963 199.178 80.3182 199.707 80.3182C200.237 80.3182 197.722 68.0131 196.399 61.8605L189.36 55.0568C188.698 56.1176 186.406 54.2689 181.842 56.1323C176.866 58.1639 170.594 71.1954 167.948 80.3182L161.993 120.416L160.008 135.691C160.449 141.844 161.066 156.568 160.008 166.242C158.949 175.916 148.539 170.273 143.466 166.242V135.691C143.466 129.963 141.463 115.655 140.158 103.868C136.935 74.7561 138.335 81.969 137.674 83.0298C138.556 78.1502 137.511 73.9681 137.511 61.8605C137.511 48.9321 130.013 42.1299 127.586 40.2205H117.662L109.06 49.1311L105.752 64.4064V87.9559L109.06 107.687L111.707 124.871L115.015 140.147C115.897 148.209 117.662 166.369 117.662 174.516C117.662 182.663 111.927 177.911 109.06 174.516L101.782 154.149C98.694 143.329 91.4599 118.125 87.2253 103.868C81.932 86.0464 81.2704 83.5006 81.2704 80.3182C81.2704 77.7723 72.6055 73.5743 68.6355 70.8163L59.4058 71.9982C58.303 73.9076 54.2747 75.7356 52.1574 80.3182C50.0401 84.9008 52.5985 94.7449 55.4657 100.685C55.4657 106.414 61.9901 122.428 61.6209 126.762C61.4292 129.012 65.6111 140.359 67.3755 147.148C70.4633 157.119 76.6388 179.226 76.6388 187.882C76.6388 196.538 70.4633 191.489 67.3755 187.882C59.8767 174.728 44.6145 148.166 43.5558 147.148C42.2325 145.875 39.5859 134.418 33.631 124.871C27.6761 115.324 21.0595 115.324 18.4128 115.324C16.2955 115.324 13.1196 117.446 11.7962 118.507L9.58448 124.871C8.10996 129.004 11.7962 139.128 11.7962 140.147C11.7962 141.165 16.8217 153.576 21.0122 159.305L24.3677 166.242C27.676 172.819 34.1603 185.973 33.631 185.973C33.1016 185.973 42.2325 202.097 46.8641 210.159L52.1574 227.98L61.4206 257.257L69.3605 290.99C72.0072 298.628 76.963 309.198 81.2704 313.511Z" fill="#F6D0D0" stroke="black" stroke-width="3"/>
<path d="M7.09801 101.227V98.9091L17.3253 82.7273H19.0071V86.3182H17.8707L10.1435 98.5455V98.7273H23.9162V101.227H7.09801ZM18.0526 106V100.523V99.4432V82.7273H20.7344V106H18.0526Z" fill="black"/>
<path d="M60.1732 62.075C58.6732 62.075 57.3361 61.8174 56.1619 61.3023C54.9952 60.7871 54.0672 60.0712 53.3778 59.1546C52.696 58.2303 52.3248 57.1584 52.2642 55.9387H55.1278C55.1884 56.6887 55.446 57.3364 55.9005 57.8818C56.3551 58.4197 56.9498 58.8364 57.6846 59.1318C58.4195 59.4273 59.2339 59.575 60.1278 59.575C61.1278 59.575 62.0142 59.4008 62.7869 59.0523C63.5596 58.7038 64.1657 58.219 64.6051 57.5977C65.0445 56.9765 65.2642 56.2568 65.2642 55.4387C65.2642 54.5826 65.052 53.8288 64.6278 53.1773C64.2035 52.5182 63.5823 52.003 62.7642 51.6318C61.946 51.2606 60.946 51.075 59.7642 51.075H57.9005V48.575H59.7642C60.6884 48.575 61.499 48.4084 62.196 48.075C62.9005 47.7417 63.4498 47.272 63.8437 46.6659C64.2452 46.0599 64.446 45.3477 64.446 44.5296C64.446 43.7417 64.2717 43.0561 63.9232 42.4727C63.5748 41.8894 63.0823 41.4349 62.446 41.1091C61.8172 40.7834 61.0748 40.6205 60.2187 40.6205C59.4157 40.6205 58.6581 40.7682 57.946 41.0637C57.2414 41.3515 56.6657 41.772 56.2187 42.325C55.7717 42.8705 55.5293 43.5296 55.4914 44.3023H52.7642C52.8096 43.0826 53.177 42.0144 53.8664 41.0977C54.5558 40.1735 55.4573 39.4538 56.571 38.9387C57.6922 38.4235 58.9232 38.1659 60.2642 38.1659C61.7035 38.1659 62.9384 38.4576 63.9687 39.0409C64.999 39.6167 65.7907 40.378 66.3437 41.325C66.8967 42.272 67.1732 43.2947 67.1732 44.3932C67.1732 45.7038 66.8285 46.8212 66.1392 47.7455C65.4573 48.6697 64.5293 49.3099 63.3551 49.6659V49.8477C64.8248 50.0902 65.9725 50.7152 66.7982 51.7227C67.624 52.7227 68.0369 53.9614 68.0369 55.4387C68.0369 56.7038 67.6922 57.8402 67.0028 58.8477C66.321 59.8477 65.3892 60.6356 64.2073 61.2114C63.0255 61.7871 61.6808 62.075 60.1732 62.075Z" fill="black"/>
<path d="M114.004 31V28.9545L121.686 20.5455C122.587 19.5606 123.329 18.7045 123.913 17.9773C124.496 17.2424 124.928 16.553 125.208 15.9091C125.496 15.2576 125.64 14.5758 125.64 13.8636C125.64 13.0455 125.443 12.3371 125.049 11.7386C124.663 11.1402 124.132 10.678 123.458 10.3523C122.784 10.0265 122.026 9.86364 121.186 9.86364C120.292 9.86364 119.511 10.0492 118.845 10.4205C118.186 10.7841 117.674 11.2955 117.311 11.9545C116.954 12.6136 116.776 13.3864 116.776 14.2727H114.095C114.095 12.9091 114.409 11.7121 115.038 10.6818C115.667 9.65151 116.523 8.84848 117.606 8.27273C118.697 7.69697 119.92 7.40909 121.276 7.40909C122.64 7.40909 123.848 7.69697 124.901 8.27273C125.954 8.84848 126.78 9.625 127.379 10.6023C127.977 11.5795 128.276 12.6667 128.276 13.8636C128.276 14.7197 128.121 15.5568 127.811 16.375C127.507 17.1856 126.977 18.0909 126.22 19.0909C125.47 20.0833 124.428 21.2955 123.095 22.7273L117.867 28.3182V28.5H128.686V31H114.004Z" fill="black"/>
<path d="M190.005 21.7273V45H187.187V24.6818H187.05L181.368 28.4545V25.5909L187.187 21.7273H190.005Z" fill="black"/>
</svg>
