<svg width="732" height="239" viewBox="0 0 732 239" fill="none" xmlns="http://www.w3.org/2000/svg">
<path d="M84.4829 234.565V39.7219C84.4829 38.6174 85.3784 37.7219 86.4829 37.7219H727.827C728.932 37.7219 729.827 38.6174 729.827 39.7219V234.565C729.827 235.669 728.932 236.565 727.827 236.565H86.4829C85.3783 236.565 84.4829 235.669 84.4829 234.565Z" fill="#333333" stroke="black" stroke-width="3"/>
<path d="M99.693 233.983V39.7219C99.693 38.6174 98.7976 37.7219 97.693 37.7219H86.4829C85.3783 37.7219 84.4829 38.6174 84.4829 39.7219V233.983C84.4829 235.088 85.3783 235.983 86.4829 235.983H97.693C98.7976 235.983 99.693 235.088 99.693 233.983Z" fill="#0A0A0A" stroke="black" stroke-width="3"/>
<path d="M44.2847 54.0015H732" stroke="black" stroke-width="3"/>
<path d="M44.2847 86.5605L730.37 87.142" stroke="black" stroke-width="3"/>
<path d="M44.2847 120.864H728.741" stroke="black" stroke-width="3"/>
<path d="M44.2847 220.285L732 220.285" stroke="black" stroke-width="3"/>
<path d="M44.2847 186.563L729.827 186.563" stroke="black" stroke-width="3"/>
<path d="M44.2847 152.841H728.741" stroke="black" stroke-width="3"/>
<path d="M180.089 37.7219V236.565" stroke="#B1AB97" stroke-width="6"/>
<path d="M708.913 37.7212V235.402" stroke="#B1AB97" stroke-width="6"/>
<path d="M620.369 37.7212V236.565" stroke="#B1AB97" stroke-width="6"/>
<path d="M531.281 37.7212V236.565" stroke="#B1AB97" stroke-width="6"/>
<path d="M444.909 37.7212V236.565" stroke="#B1AB97" stroke-width="6"/>
<path d="M356.364 37.7212V236.565" stroke="#B1AB97" stroke-width="6"/>
<path d="M266.733 37.7212V236.565" stroke="#B1AB97" stroke-width="6"/>
<ellipse cx="312.092" cy="137.725" rx="9.23472" ry="8.13976" fill="white"/>
<ellipse cx="488.095" cy="137.725" rx="9.23472" ry="8.13976" fill="white"/>
<ellipse cx="668.443" cy="137.725" rx="9.23472" ry="8.13976" fill="white"/>
<g filter="url(#filter0_d_93_1062)">
<path d="M6.63327 59.8616V42.407H17.1674V44.282H8.7469V50.1798H16.6219V52.0548H8.7469V57.9866H17.3037V59.8616H6.63327Z" fill="#0A0A0A"/>
</g>
<g filter="url(#filter1_d_93_1062)">
<path d="M138.997 0.545454V18H136.883V2.76136H136.781L132.52 5.59091V3.44318L136.883 0.545454H138.997Z" fill="#0A0A0A"/>
</g>
<g filter="url(#filter2_d_93_1062)">
<path d="M218.088 18V16.4659L223.85 10.1591C224.526 9.42045 225.082 8.77841 225.52 8.23295C225.957 7.68182 226.281 7.16477 226.492 6.68182C226.707 6.19318 226.815 5.68182 226.815 5.14773C226.815 4.53409 226.668 4.00284 226.372 3.55398C226.082 3.10511 225.685 2.75852 225.179 2.5142C224.673 2.26989 224.105 2.14773 223.475 2.14773C222.804 2.14773 222.219 2.28693 221.719 2.56534C221.225 2.83807 220.841 3.22159 220.568 3.71591C220.301 4.21023 220.168 4.78977 220.168 5.45454H218.156C218.156 4.43182 218.392 3.53409 218.864 2.76136C219.335 1.98864 219.977 1.38636 220.79 0.954545C221.608 0.522727 222.526 0.306818 223.543 0.306818C224.565 0.306818 225.472 0.522727 226.261 0.954545C227.051 1.38636 227.671 1.96875 228.119 2.7017C228.568 3.43466 228.793 4.25 228.793 5.14773C228.793 5.78977 228.676 6.41761 228.443 7.03125C228.216 7.6392 227.818 8.31818 227.25 9.06818C226.688 9.8125 225.906 10.7216 224.906 11.7955L220.986 15.9886V16.125H229.1V18H218.088Z" fill="#0A0A0A"/>
</g>
<g filter="url(#filter3_d_93_1062)">
<path d="M311.612 18.2386C310.487 18.2386 309.485 18.0455 308.604 17.6591C307.729 17.2727 307.033 16.7358 306.516 16.0483C306.004 15.3551 305.726 14.5511 305.681 13.6364H307.828C307.874 14.1989 308.067 14.6847 308.408 15.0938C308.749 15.4972 309.195 15.8097 309.746 16.0312C310.297 16.2528 310.908 16.3636 311.578 16.3636C312.328 16.3636 312.993 16.233 313.573 15.9716C314.152 15.7102 314.607 15.3466 314.936 14.8807C315.266 14.4148 315.431 13.875 315.431 13.2614C315.431 12.6193 315.271 12.054 314.953 11.5653C314.635 11.071 314.169 10.6847 313.556 10.4062C312.942 10.1278 312.192 9.98864 311.306 9.98864H309.908V8.11364H311.306C311.999 8.11364 312.607 7.98864 313.129 7.73864C313.658 7.48864 314.07 7.13636 314.365 6.68182C314.666 6.22727 314.817 5.69318 314.817 5.07954C314.817 4.48864 314.686 3.97443 314.425 3.53693C314.163 3.09943 313.794 2.75852 313.317 2.5142C312.845 2.26989 312.288 2.14773 311.646 2.14773C311.044 2.14773 310.476 2.25852 309.942 2.48011C309.413 2.69602 308.982 3.01136 308.646 3.42614C308.311 3.83523 308.129 4.32955 308.101 4.90909H306.056C306.09 3.99432 306.365 3.19318 306.882 2.50568C307.399 1.8125 308.075 1.27273 308.911 0.886364C309.752 0.5 310.675 0.306818 311.681 0.306818C312.76 0.306818 313.686 0.525568 314.459 0.963068C315.232 1.39489 315.825 1.96591 316.24 2.67614C316.655 3.38636 316.862 4.15341 316.862 4.97727C316.862 5.96023 316.604 6.7983 316.087 7.49148C315.575 8.18466 314.879 8.66477 313.999 8.93182V9.06818C315.101 9.25 315.962 9.71875 316.581 10.4744C317.2 11.2244 317.51 12.1534 317.51 13.2614C317.51 14.2102 317.252 15.0625 316.735 15.8182C316.223 16.5682 315.524 17.1591 314.638 17.5909C313.752 18.0227 312.743 18.2386 311.612 18.2386Z" fill="#0A0A0A"/>
</g>
<g filter="url(#filter4_d_93_1062)">
<path d="M395.421 14.4205V12.6818L403.092 0.545454H404.353V3.23864H403.501L397.705 12.4091V12.5455H408.035V14.4205H395.421ZM403.637 18V13.892V13.0824V0.545454H405.649V18H403.637Z" fill="#0A0A0A"/>
</g>
<g filter="url(#filter5_d_93_1062)">
<path d="M488.598 18.2386C487.598 18.2386 486.698 18.0398 485.897 17.642C485.096 17.2443 484.453 16.6989 483.971 16.0057C483.488 15.3125 483.223 14.5227 483.178 13.6364H485.223C485.303 14.4261 485.661 15.0795 486.297 15.5966C486.939 16.108 487.706 16.3636 488.598 16.3636C489.314 16.3636 489.951 16.196 490.507 15.8608C491.07 15.5256 491.51 15.0653 491.828 14.4801C492.152 13.8892 492.314 13.2216 492.314 12.4773C492.314 11.7159 492.147 11.0369 491.811 10.4403C491.482 9.83807 491.027 9.36364 490.448 9.01705C489.868 8.67045 489.206 8.49432 488.462 8.48864C487.928 8.48295 487.38 8.56534 486.817 8.7358C486.255 8.90057 485.792 9.11364 485.428 9.375L483.451 9.13636L484.507 0.545454H493.576V2.42045H486.28L485.667 7.56818H485.769C486.127 7.28409 486.576 7.0483 487.115 6.8608C487.655 6.6733 488.218 6.57955 488.803 6.57955C489.871 6.57955 490.823 6.83523 491.658 7.34659C492.499 7.85227 493.158 8.54545 493.635 9.42614C494.118 10.3068 494.36 11.3125 494.36 12.4432C494.36 13.5568 494.11 14.5511 493.61 15.4261C493.115 16.2955 492.434 16.983 491.564 17.4886C490.695 17.9886 489.706 18.2386 488.598 18.2386Z" fill="#0A0A0A"/>
</g>
<g filter="url(#filter6_d_93_1062)">
<path d="M575.667 18.2386C574.951 18.2273 574.235 18.0909 573.519 17.8295C572.803 17.5682 572.15 17.1278 571.559 16.5085C570.968 15.8835 570.494 15.0398 570.136 13.9773C569.778 12.9091 569.599 11.5682 569.599 9.95455C569.599 8.40909 569.744 7.03977 570.033 5.84659C570.323 4.64773 570.744 3.6392 571.295 2.82102C571.846 1.99716 572.511 1.37216 573.289 0.946022C574.073 0.519886 574.957 0.306818 575.94 0.306818C576.917 0.306818 577.786 0.502841 578.548 0.894886C579.315 1.28125 579.94 1.82102 580.423 2.5142C580.905 3.20739 581.218 4.00568 581.36 4.90909H579.28C579.087 4.125 578.712 3.47443 578.155 2.95739C577.599 2.44034 576.86 2.18182 575.94 2.18182C574.587 2.18182 573.522 2.76989 572.744 3.94602C571.971 5.12216 571.582 6.77273 571.576 8.89773H571.712C572.03 8.41477 572.408 8.00284 572.846 7.66193C573.289 7.31534 573.778 7.0483 574.312 6.8608C574.846 6.6733 575.411 6.57955 576.008 6.57955C577.008 6.57955 577.923 6.82955 578.752 7.32955C579.582 7.82386 580.246 8.50852 580.746 9.38352C581.246 10.2528 581.496 11.25 581.496 12.375C581.496 13.4545 581.255 14.4432 580.772 15.3409C580.289 16.233 579.61 16.9432 578.735 17.4716C577.866 17.9943 576.843 18.25 575.667 18.2386ZM575.667 16.3636C576.383 16.3636 577.025 16.1847 577.593 15.8267C578.167 15.4687 578.619 14.9886 578.948 14.3864C579.283 13.7841 579.451 13.1136 579.451 12.375C579.451 11.6534 579.289 10.9972 578.965 10.4062C578.647 9.80966 578.207 9.33523 577.644 8.98295C577.087 8.63068 576.451 8.45455 575.735 8.45455C575.195 8.45455 574.692 8.5625 574.226 8.77841C573.761 8.98864 573.351 9.27841 572.999 9.64773C572.653 10.017 572.38 10.4403 572.181 10.9176C571.982 11.3892 571.883 11.8864 571.883 12.4091C571.883 13.1023 572.045 13.75 572.369 14.3523C572.698 14.9545 573.147 15.4403 573.715 15.8097C574.289 16.179 574.94 16.3636 575.667 16.3636Z" fill="#0A0A0A"/>
</g>
<g filter="url(#filter7_d_93_1062)">
<path d="M664.483 18L672.29 2.55682V2.42045H663.29V0.545454H674.472V2.52273L666.699 18H664.483Z" fill="#0A0A0A"/>
</g>
<g filter="url(#filter8_d_93_1062)">
<path d="M6.00045 93.5835V76.129H12.1027C13.3186 76.129 14.3215 76.3392 15.1113 76.7596C15.901 77.1744 16.4891 77.7341 16.8755 78.4386C17.2618 79.1375 17.455 79.913 17.455 80.7653C17.455 81.5153 17.3215 82.1346 17.0544 82.6233C16.7931 83.1119 16.4465 83.4983 16.0147 83.7824C15.5885 84.0665 15.1255 84.2767 14.6255 84.413V84.5835C15.1595 84.6176 15.6965 84.8051 16.2363 85.146C16.776 85.4869 17.2277 85.9755 17.5914 86.6119C17.955 87.2483 18.1368 88.0267 18.1368 88.9471C18.1368 89.8221 17.938 90.6091 17.5402 91.3079C17.1425 92.0068 16.5147 92.5608 15.6567 92.9699C14.7987 93.379 13.6823 93.5835 12.3073 93.5835H6.00045ZM8.11409 91.7085H12.3073C13.688 91.7085 14.6681 91.4415 15.2476 90.9074C15.8328 90.3676 16.1255 89.7142 16.1255 88.9471C16.1255 88.3562 15.9749 87.8108 15.6738 87.3108C15.3726 86.8051 14.9436 86.4017 14.3868 86.1005C13.83 85.7937 13.1709 85.6403 12.4095 85.6403H8.11409V91.7085ZM8.11409 83.7994H12.0345C12.6709 83.7994 13.2448 83.6744 13.7561 83.4244C14.2732 83.1744 14.6823 82.8221 14.9834 82.3676C15.2902 81.913 15.4436 81.379 15.4436 80.7653C15.4436 79.9983 15.1766 79.3477 14.6425 78.8136C14.1084 78.2738 13.2618 78.004 12.1027 78.004H8.11409V83.7994Z" fill="black"/>
</g>
<g filter="url(#filter9_d_93_1062)">
<path d="M16.819 115.305C16.6315 114.732 16.3843 114.217 16.0775 113.763C15.7764 113.303 15.4156 112.911 14.9951 112.587C14.5804 112.263 14.1088 112.016 13.5804 111.845C13.0519 111.675 12.4724 111.59 11.8417 111.59C10.8076 111.59 9.86729 111.857 9.0207 112.391C8.17411 112.925 7.50081 113.712 7.00081 114.751C6.50081 115.791 6.25081 117.067 6.25081 118.578C6.25081 120.09 6.50365 121.365 7.00933 122.405C7.51501 123.445 8.19967 124.232 9.06331 124.766C9.92695 125.3 10.8985 125.567 11.9781 125.567C12.9781 125.567 13.8588 125.354 14.6201 124.928C15.3872 124.496 15.9838 123.888 16.4099 123.104C16.8417 122.314 17.0576 121.385 17.0576 120.317L17.7054 120.453H12.4554V118.578H19.1031V120.453C19.1031 121.891 18.7963 123.141 18.1826 124.203C17.5747 125.266 16.7338 126.09 15.6599 126.675C14.5917 127.254 13.3644 127.544 11.9781 127.544C10.4326 127.544 9.07467 127.18 7.90422 126.453C6.73945 125.726 5.83036 124.692 5.17695 123.351C4.52922 122.01 4.20535 120.419 4.20535 118.578C4.20535 117.197 4.39001 115.956 4.75933 114.854C5.13433 113.746 5.66274 112.803 6.34456 112.024C7.02638 111.246 7.8332 110.649 8.76501 110.234C9.69683 109.82 10.7224 109.612 11.8417 109.612C12.7622 109.612 13.6201 109.751 14.4156 110.03C15.2167 110.303 15.9298 110.692 16.5548 111.197C17.1855 111.697 17.711 112.297 18.1315 112.996C18.5519 113.689 18.8417 114.459 19.0008 115.305H16.819Z" fill="black"/>
</g>
<g filter="url(#filter10_d_93_1062)">
<path d="M10.5665 162.19H5.18014V144.736H10.8051C12.4983 144.736 13.9472 145.085 15.1517 145.784C16.3563 146.477 17.2796 147.474 17.9216 148.775C18.5637 150.071 18.8847 151.622 18.8847 153.429C18.8847 155.247 18.5608 156.812 17.9131 158.125C17.2654 159.432 16.3222 160.437 15.0836 161.142C13.8449 161.841 12.3392 162.19 10.5665 162.19ZM7.29378 160.315H10.4301C11.8733 160.315 13.0693 160.037 14.0182 159.48C14.9671 158.923 15.6745 158.131 16.1404 157.102C16.6063 156.074 16.8392 154.849 16.8392 153.429C16.8392 152.02 16.6091 150.807 16.1489 149.79C15.6887 148.767 15.0012 147.983 14.0864 147.437C13.1716 146.886 12.0324 146.611 10.6688 146.611H7.29378V160.315Z" fill="black"/>
</g>
<g filter="url(#filter11_d_93_1062)">
<path d="M6.41168 192.424H4.19577L10.6049 174.969H12.7867L19.1958 192.424H16.9799L11.7639 177.73H11.6276L6.41168 192.424ZM7.22986 185.605H16.1617V187.48H7.22986V185.605Z" fill="black"/>
</g>
<g filter="url(#filter12_d_93_1062)">
<path d="M6.63327 222.657V205.202H17.1674V207.077H8.7469V212.975H16.6219V214.85H8.7469V220.782H17.3037V222.657H6.63327Z" fill="black"/>
</g>
<ellipse cx="136.632" cy="79.5835" rx="16.2966" ry="16.2795" fill="#7DE2D1"/>
<g filter="url(#filter13_d_93_1062)">
<path d="M138.997 69.1521V86.6067H136.883V71.3681H136.781L132.52 74.1976V72.0499L136.883 69.1521H138.997Z" fill="white"/>
</g>
<g filter="url(#filter14_d_93_1062)">
<path d="M138.997 69.1521V86.6067H136.883V71.3681H136.781L132.52 74.1976V72.0499L136.883 69.1521H138.997Z" fill="white"/>
</g>
<ellipse cx="136.632" cy="79.5835" rx="16.2966" ry="16.2795" fill="#7DE2D1"/>
<g filter="url(#filter15_d_93_1062)">
<path d="M138.997 69.1521V86.6067H136.883V71.3681H136.781L132.52 74.1976V72.0499L136.883 69.1521H138.997Z" fill="white"/>
</g>
<g filter="url(#filter16_d_93_1062)">
<path d="M138.997 69.1521V86.6067H136.883V71.3681H136.781L132.52 74.1976V72.0499L136.883 69.1521H138.997Z" fill="white"/>
</g>
<ellipse cx="223.547" cy="113.305" rx="16.2966" ry="16.2795" fill="#7DE2D1"/>
<g filter="url(#filter17_d_93_1062)">
<path d="M223.611 120.567C222.486 120.567 221.483 120.374 220.602 119.987C219.727 119.601 219.031 119.064 218.514 118.377C218.003 117.683 217.725 116.88 217.679 115.965H219.827C219.872 116.527 220.065 117.013 220.406 117.422C220.747 117.826 221.193 118.138 221.744 118.36C222.296 118.581 222.906 118.692 223.577 118.692C224.327 118.692 224.992 118.561 225.571 118.3C226.151 118.039 226.605 117.675 226.935 117.209C227.264 116.743 227.429 116.203 227.429 115.59C227.429 114.948 227.27 114.382 226.952 113.894C226.634 113.399 226.168 113.013 225.554 112.735C224.94 112.456 224.19 112.317 223.304 112.317H221.906V110.442H223.304C223.997 110.442 224.605 110.317 225.128 110.067C225.656 109.817 226.068 109.465 226.364 109.01C226.665 108.556 226.815 108.022 226.815 107.408C226.815 106.817 226.685 106.303 226.423 105.865C226.162 105.428 225.793 105.087 225.315 104.843C224.844 104.598 224.287 104.476 223.645 104.476C223.043 104.476 222.475 104.587 221.94 104.808C221.412 105.024 220.98 105.34 220.645 105.755C220.31 106.164 220.128 106.658 220.1 107.237H218.054C218.088 106.323 218.364 105.522 218.881 104.834C219.398 104.141 220.074 103.601 220.909 103.215C221.75 102.828 222.673 102.635 223.679 102.635C224.759 102.635 225.685 102.854 226.457 103.291C227.23 103.723 227.824 104.294 228.239 105.005C228.654 105.715 228.861 106.482 228.861 107.306C228.861 108.289 228.602 109.127 228.085 109.82C227.574 110.513 226.878 110.993 225.997 111.26V111.397C227.1 111.578 227.96 112.047 228.58 112.803C229.199 113.553 229.509 114.482 229.509 115.59C229.509 116.539 229.25 117.391 228.733 118.147C228.222 118.897 227.523 119.487 226.636 119.919C225.75 120.351 224.742 120.567 223.611 120.567Z" fill="white"/>
</g>
<ellipse cx="223.547" cy="152.841" rx="16.2966" ry="16.2795" fill="#7DE2D1"/>
<g filter="url(#filter18_d_93_1062)">
<path d="M218.088 159.865V158.33L223.85 152.024C224.526 151.285 225.082 150.643 225.52 150.097C225.957 149.546 226.281 149.029 226.492 148.546C226.707 148.058 226.815 147.546 226.815 147.012C226.815 146.399 226.668 145.867 226.372 145.418C226.082 144.97 225.685 144.623 225.179 144.379C224.673 144.134 224.105 144.012 223.475 144.012C222.804 144.012 222.219 144.151 221.719 144.43C221.225 144.703 220.841 145.086 220.568 145.58C220.301 146.075 220.168 146.654 220.168 147.319H218.156C218.156 146.296 218.392 145.399 218.864 144.626C219.335 143.853 219.977 143.251 220.79 142.819C221.608 142.387 222.526 142.171 223.543 142.171C224.565 142.171 225.472 142.387 226.261 142.819C227.051 143.251 227.671 143.833 228.119 144.566C228.568 145.299 228.793 146.115 228.793 147.012C228.793 147.654 228.676 148.282 228.443 148.896C228.216 149.504 227.818 150.183 227.25 150.933C226.688 151.677 225.906 152.586 224.906 153.66L220.986 157.853V157.99H229.1V159.865H218.088Z" fill="white"/>
</g>
<defs>
<filter id="filter0_d_93_1062" x="2.6333" y="42.407" width="18.6704" height="25.4546" filterUnits="userSpaceOnUse" color-interpolation-filters="sRGB">
<feFlood flood-opacity="0" result="BackgroundImageFix"/>
<feColorMatrix in="SourceAlpha" type="matrix" values="0 0 0 0 0 0 0 0 0 0 0 0 0 0 0 0 0 0 127 0" result="hardAlpha"/>
<feOffset dy="4"/>
<feGaussianBlur stdDeviation="2"/>
<feComposite in2="hardAlpha" operator="out"/>
<feColorMatrix type="matrix" values="0 0 0 0 0 0 0 0 0 0 0 0 0 0 0 0 0 0 0.25 0"/>
<feBlend mode="normal" in2="BackgroundImageFix" result="effect1_dropShadow_93_1062"/>
<feBlend mode="normal" in="SourceGraphic" in2="effect1_dropShadow_93_1062" result="shape"/>
</filter>
<filter id="filter1_d_93_1062" x="128.52" y="0.54541" width="14.4775" height="25.4546" filterUnits="userSpaceOnUse" color-interpolation-filters="sRGB">
<feFlood flood-opacity="0" result="BackgroundImageFix"/>
<feColorMatrix in="SourceAlpha" type="matrix" values="0 0 0 0 0 0 0 0 0 0 0 0 0 0 0 0 0 0 127 0" result="hardAlpha"/>
<feOffset dy="4"/>
<feGaussianBlur stdDeviation="2"/>
<feComposite in2="hardAlpha" operator="out"/>
<feColorMatrix type="matrix" values="0 0 0 0 0 0 0 0 0 0 0 0 0 0 0 0 0 0 0.25 0"/>
<feBlend mode="normal" in2="BackgroundImageFix" result="effect1_dropShadow_93_1062"/>
<feBlend mode="normal" in="SourceGraphic" in2="effect1_dropShadow_93_1062" result="shape"/>
</filter>
<filter id="filter2_d_93_1062" x="214.088" y="0.306885" width="19.0112" height="25.6931" filterUnits="userSpaceOnUse" color-interpolation-filters="sRGB">
<feFlood flood-opacity="0" result="BackgroundImageFix"/>
<feColorMatrix in="SourceAlpha" type="matrix" values="0 0 0 0 0 0 0 0 0 0 0 0 0 0 0 0 0 0 127 0" result="hardAlpha"/>
<feOffset dy="4"/>
<feGaussianBlur stdDeviation="2"/>
<feComposite in2="hardAlpha" operator="out"/>
<feColorMatrix type="matrix" values="0 0 0 0 0 0 0 0 0 0 0 0 0 0 0 0 0 0 0.25 0"/>
<feBlend mode="normal" in2="BackgroundImageFix" result="effect1_dropShadow_93_1062"/>
<feBlend mode="normal" in="SourceGraphic" in2="effect1_dropShadow_93_1062" result="shape"/>
</filter>
<filter id="filter3_d_93_1062" x="301.681" y="0.306885" width="19.8296" height="25.9316" filterUnits="userSpaceOnUse" color-interpolation-filters="sRGB">
<feFlood flood-opacity="0" result="BackgroundImageFix"/>
<feColorMatrix in="SourceAlpha" type="matrix" values="0 0 0 0 0 0 0 0 0 0 0 0 0 0 0 0 0 0 127 0" result="hardAlpha"/>
<feOffset dy="4"/>
<feGaussianBlur stdDeviation="2"/>
<feComposite in2="hardAlpha" operator="out"/>
<feColorMatrix type="matrix" values="0 0 0 0 0 0 0 0 0 0 0 0 0 0 0 0 0 0 0.25 0"/>
<feBlend mode="normal" in2="BackgroundImageFix" result="effect1_dropShadow_93_1062"/>
<feBlend mode="normal" in="SourceGraphic" in2="effect1_dropShadow_93_1062" result="shape"/>
</filter>
<filter id="filter4_d_93_1062" x="391.421" y="0.54541" width="20.6133" height="25.4546" filterUnits="userSpaceOnUse" color-interpolation-filters="sRGB">
<feFlood flood-opacity="0" result="BackgroundImageFix"/>
<feColorMatrix in="SourceAlpha" type="matrix" values="0 0 0 0 0 0 0 0 0 0 0 0 0 0 0 0 0 0 127 0" result="hardAlpha"/>
<feOffset dy="4"/>
<feGaussianBlur stdDeviation="2"/>
<feComposite in2="hardAlpha" operator="out"/>
<feColorMatrix type="matrix" values="0 0 0 0 0 0 0 0 0 0 0 0 0 0 0 0 0 0 0.25 0"/>
<feBlend mode="normal" in2="BackgroundImageFix" result="effect1_dropShadow_93_1062"/>
<feBlend mode="normal" in="SourceGraphic" in2="effect1_dropShadow_93_1062" result="shape"/>
</filter>
<filter id="filter5_d_93_1062" x="479.178" y="0.54541" width="19.1821" height="25.6931" filterUnits="userSpaceOnUse" color-interpolation-filters="sRGB">
<feFlood flood-opacity="0" result="BackgroundImageFix"/>
<feColorMatrix in="SourceAlpha" type="matrix" values="0 0 0 0 0 0 0 0 0 0 0 0 0 0 0 0 0 0 127 0" result="hardAlpha"/>
<feOffset dy="4"/>
<feGaussianBlur stdDeviation="2"/>
<feComposite in2="hardAlpha" operator="out"/>
<feColorMatrix type="matrix" values="0 0 0 0 0 0 0 0 0 0 0 0 0 0 0 0 0 0 0.25 0"/>
<feBlend mode="normal" in2="BackgroundImageFix" result="effect1_dropShadow_93_1062"/>
<feBlend mode="normal" in="SourceGraphic" in2="effect1_dropShadow_93_1062" result="shape"/>
</filter>
<filter id="filter6_d_93_1062" x="565.599" y="0.306885" width="19.8979" height="25.9487" filterUnits="userSpaceOnUse" color-interpolation-filters="sRGB">
<feFlood flood-opacity="0" result="BackgroundImageFix"/>
<feColorMatrix in="SourceAlpha" type="matrix" values="0 0 0 0 0 0 0 0 0 0 0 0 0 0 0 0 0 0 127 0" result="hardAlpha"/>
<feOffset dy="4"/>
<feGaussianBlur stdDeviation="2"/>
<feComposite in2="hardAlpha" operator="out"/>
<feColorMatrix type="matrix" values="0 0 0 0 0 0 0 0 0 0 0 0 0 0 0 0 0 0 0.25 0"/>
<feBlend mode="normal" in2="BackgroundImageFix" result="effect1_dropShadow_93_1062"/>
<feBlend mode="normal" in="SourceGraphic" in2="effect1_dropShadow_93_1062" result="shape"/>
</filter>
<filter id="filter7_d_93_1062" x="659.29" y="0.54541" width="19.1816" height="25.4546" filterUnits="userSpaceOnUse" color-interpolation-filters="sRGB">
<feFlood flood-opacity="0" result="BackgroundImageFix"/>
<feColorMatrix in="SourceAlpha" type="matrix" values="0 0 0 0 0 0 0 0 0 0 0 0 0 0 0 0 0 0 127 0" result="hardAlpha"/>
<feOffset dy="4"/>
<feGaussianBlur stdDeviation="2"/>
<feComposite in2="hardAlpha" operator="out"/>
<feColorMatrix type="matrix" values="0 0 0 0 0 0 0 0 0 0 0 0 0 0 0 0 0 0 0.25 0"/>
<feBlend mode="normal" in2="BackgroundImageFix" result="effect1_dropShadow_93_1062"/>
<feBlend mode="normal" in="SourceGraphic" in2="effect1_dropShadow_93_1062" result="shape"/>
</filter>
<filter id="filter8_d_93_1062" x="2.00049" y="76.1289" width="20.1362" height="25.4546" filterUnits="userSpaceOnUse" color-interpolation-filters="sRGB">
<feFlood flood-opacity="0" result="BackgroundImageFix"/>
<feColorMatrix in="SourceAlpha" type="matrix" values="0 0 0 0 0 0 0 0 0 0 0 0 0 0 0 0 0 0 127 0" result="hardAlpha"/>
<feOffset dy="4"/>
<feGaussianBlur stdDeviation="2"/>
<feComposite in2="hardAlpha" operator="out"/>
<feColorMatrix type="matrix" values="0 0 0 0 0 0 0 0 0 0 0 0 0 0 0 0 0 0 0.25 0"/>
<feBlend mode="normal" in2="BackgroundImageFix" result="effect1_dropShadow_93_1062"/>
<feBlend mode="normal" in="SourceGraphic" in2="effect1_dropShadow_93_1062" result="shape"/>
</filter>
<filter id="filter9_d_93_1062" x="0.205566" y="109.612" width="22.8975" height="25.9316" filterUnits="userSpaceOnUse" color-interpolation-filters="sRGB">
<feFlood flood-opacity="0" result="BackgroundImageFix"/>
<feColorMatrix in="SourceAlpha" type="matrix" values="0 0 0 0 0 0 0 0 0 0 0 0 0 0 0 0 0 0 127 0" result="hardAlpha"/>
<feOffset dy="4"/>
<feGaussianBlur stdDeviation="2"/>
<feComposite in2="hardAlpha" operator="out"/>
<feColorMatrix type="matrix" values="0 0 0 0 0 0 0 0 0 0 0 0 0 0 0 0 0 0 0.25 0"/>
<feBlend mode="normal" in2="BackgroundImageFix" result="effect1_dropShadow_93_1062"/>
<feBlend mode="normal" in="SourceGraphic" in2="effect1_dropShadow_93_1062" result="shape"/>
</filter>
<filter id="filter10_d_93_1062" x="1.18018" y="144.736" width="21.7046" height="25.4546" filterUnits="userSpaceOnUse" color-interpolation-filters="sRGB">
<feFlood flood-opacity="0" result="BackgroundImageFix"/>
<feColorMatrix in="SourceAlpha" type="matrix" values="0 0 0 0 0 0 0 0 0 0 0 0 0 0 0 0 0 0 127 0" result="hardAlpha"/>
<feOffset dy="4"/>
<feGaussianBlur stdDeviation="2"/>
<feComposite in2="hardAlpha" operator="out"/>
<feColorMatrix type="matrix" values="0 0 0 0 0 0 0 0 0 0 0 0 0 0 0 0 0 0 0.25 0"/>
<feBlend mode="normal" in2="BackgroundImageFix" result="effect1_dropShadow_93_1062"/>
<feBlend mode="normal" in="SourceGraphic" in2="effect1_dropShadow_93_1062" result="shape"/>
</filter>
<filter id="filter11_d_93_1062" x="0.195801" y="174.969" width="23" height="25.4546" filterUnits="userSpaceOnUse" color-interpolation-filters="sRGB">
<feFlood flood-opacity="0" result="BackgroundImageFix"/>
<feColorMatrix in="SourceAlpha" type="matrix" values="0 0 0 0 0 0 0 0 0 0 0 0 0 0 0 0 0 0 127 0" result="hardAlpha"/>
<feOffset dy="4"/>
<feGaussianBlur stdDeviation="2"/>
<feComposite in2="hardAlpha" operator="out"/>
<feColorMatrix type="matrix" values="0 0 0 0 0 0 0 0 0 0 0 0 0 0 0 0 0 0 0.25 0"/>
<feBlend mode="normal" in2="BackgroundImageFix" result="effect1_dropShadow_93_1062"/>
<feBlend mode="normal" in="SourceGraphic" in2="effect1_dropShadow_93_1062" result="shape"/>
</filter>
<filter id="filter12_d_93_1062" x="2.6333" y="205.202" width="18.6704" height="25.4546" filterUnits="userSpaceOnUse" color-interpolation-filters="sRGB">
<feFlood flood-opacity="0" result="BackgroundImageFix"/>
<feColorMatrix in="SourceAlpha" type="matrix" values="0 0 0 0 0 0 0 0 0 0 0 0 0 0 0 0 0 0 127 0" result="hardAlpha"/>
<feOffset dy="4"/>
<feGaussianBlur stdDeviation="2"/>
<feComposite in2="hardAlpha" operator="out"/>
<feColorMatrix type="matrix" values="0 0 0 0 0 0 0 0 0 0 0 0 0 0 0 0 0 0 0.25 0"/>
<feBlend mode="normal" in2="BackgroundImageFix" result="effect1_dropShadow_93_1062"/>
<feBlend mode="normal" in="SourceGraphic" in2="effect1_dropShadow_93_1062" result="shape"/>
</filter>
<filter id="filter13_d_93_1062" x="128.52" y="69.1521" width="14.4775" height="25.4546" filterUnits="userSpaceOnUse" color-interpolation-filters="sRGB">
<feFlood flood-opacity="0" result="BackgroundImageFix"/>
<feColorMatrix in="SourceAlpha" type="matrix" values="0 0 0 0 0 0 0 0 0 0 0 0 0 0 0 0 0 0 127 0" result="hardAlpha"/>
<feOffset dy="4"/>
<feGaussianBlur stdDeviation="2"/>
<feComposite in2="hardAlpha" operator="out"/>
<feColorMatrix type="matrix" values="0 0 0 0 0 0 0 0 0 0 0 0 0 0 0 0 0 0 0.25 0"/>
<feBlend mode="normal" in2="BackgroundImageFix" result="effect1_dropShadow_93_1062"/>
<feBlend mode="normal" in="SourceGraphic" in2="effect1_dropShadow_93_1062" result="shape"/>
</filter>
<filter id="filter14_d_93_1062" x="128.52" y="69.1521" width="14.4775" height="25.4546" filterUnits="userSpaceOnUse" color-interpolation-filters="sRGB">
<feFlood flood-opacity="0" result="BackgroundImageFix"/>
<feColorMatrix in="SourceAlpha" type="matrix" values="0 0 0 0 0 0 0 0 0 0 0 0 0 0 0 0 0 0 127 0" result="hardAlpha"/>
<feOffset dy="4"/>
<feGaussianBlur stdDeviation="2"/>
<feComposite in2="hardAlpha" operator="out"/>
<feColorMatrix type="matrix" values="0 0 0 0 0 0 0 0 0 0 0 0 0 0 0 0 0 0 0.25 0"/>
<feBlend mode="normal" in2="BackgroundImageFix" result="effect1_dropShadow_93_1062"/>
<feBlend mode="normal" in="SourceGraphic" in2="effect1_dropShadow_93_1062" result="shape"/>
</filter>
<filter id="filter15_d_93_1062" x="128.52" y="69.1521" width="14.4775" height="25.4546" filterUnits="userSpaceOnUse" color-interpolation-filters="sRGB">
<feFlood flood-opacity="0" result="BackgroundImageFix"/>
<feColorMatrix in="SourceAlpha" type="matrix" values="0 0 0 0 0 0 0 0 0 0 0 0 0 0 0 0 0 0 127 0" result="hardAlpha"/>
<feOffset dy="4"/>
<feGaussianBlur stdDeviation="2"/>
<feComposite in2="hardAlpha" operator="out"/>
<feColorMatrix type="matrix" values="0 0 0 0 0 0 0 0 0 0 0 0 0 0 0 0 0 0 0.25 0"/>
<feBlend mode="normal" in2="BackgroundImageFix" result="effect1_dropShadow_93_1062"/>
<feBlend mode="normal" in="SourceGraphic" in2="effect1_dropShadow_93_1062" result="shape"/>
</filter>
<filter id="filter16_d_93_1062" x="128.52" y="69.1521" width="14.4775" height="25.4546" filterUnits="userSpaceOnUse" color-interpolation-filters="sRGB">
<feFlood flood-opacity="0" result="BackgroundImageFix"/>
<feColorMatrix in="SourceAlpha" type="matrix" values="0 0 0 0 0 0 0 0 0 0 0 0 0 0 0 0 0 0 127 0" result="hardAlpha"/>
<feOffset dy="4"/>
<feGaussianBlur stdDeviation="2"/>
<feComposite in2="hardAlpha" operator="out"/>
<feColorMatrix type="matrix" values="0 0 0 0 0 0 0 0 0 0 0 0 0 0 0 0 0 0 0.25 0"/>
<feBlend mode="normal" in2="BackgroundImageFix" result="effect1_dropShadow_93_1062"/>
<feBlend mode="normal" in="SourceGraphic" in2="effect1_dropShadow_93_1062" result="shape"/>
</filter>
<filter id="filter17_d_93_1062" x="213.679" y="102.635" width="19.8296" height="25.9316" filterUnits="userSpaceOnUse" color-interpolation-filters="sRGB">
<feFlood flood-opacity="0" result="BackgroundImageFix"/>
<feColorMatrix in="SourceAlpha" type="matrix" values="0 0 0 0 0 0 0 0 0 0 0 0 0 0 0 0 0 0 127 0" result="hardAlpha"/>
<feOffset dy="4"/>
<feGaussianBlur stdDeviation="2"/>
<feComposite in2="hardAlpha" operator="out"/>
<feColorMatrix type="matrix" values="0 0 0 0 0 0 0 0 0 0 0 0 0 0 0 0 0 0 0.25 0"/>
<feBlend mode="normal" in2="BackgroundImageFix" result="effect1_dropShadow_93_1062"/>
<feBlend mode="normal" in="SourceGraphic" in2="effect1_dropShadow_93_1062" result="shape"/>
</filter>
<filter id="filter18_d_93_1062" x="214.088" y="142.171" width="19.0112" height="25.6931" filterUnits="userSpaceOnUse" color-interpolation-filters="sRGB">
<feFlood flood-opacity="0" result="BackgroundImageFix"/>
<feColorMatrix in="SourceAlpha" type="matrix" values="0 0 0 0 0 0 0 0 0 0 0 0 0 0 0 0 0 0 127 0" result="hardAlpha"/>
<feOffset dy="4"/>
<feGaussianBlur stdDeviation="2"/>
<feComposite in2="hardAlpha" operator="out"/>
<feColorMatrix type="matrix" values="0 0 0 0 0 0 0 0 0 0 0 0 0 0 0 0 0 0 0.25 0"/>
<feBlend mode="normal" in2="BackgroundImageFix" result="effect1_dropShadow_93_1062"/>
<feBlend mode="normal" in="SourceGraphic" in2="effect1_dropShadow_93_1062" result="shape"/>
</filter>
</defs>
</svg>
