<svg width="732" height="239" viewBox="0 0 732 239" fill="none" xmlns="http://www.w3.org/2000/svg">
<path d="M84.4829 234.56V39.7212C84.4829 38.6166 85.3784 37.7212 86.4829 37.7212H727.827C728.932 37.7212 729.827 38.6166 729.827 39.7212V234.56C729.827 235.664 728.932 236.56 727.827 236.56H86.4829C85.3783 236.56 84.4829 235.664 84.4829 234.56Z" fill="#333333" stroke="black" stroke-width="3"/>
<path d="M99.693 233.978V39.7212C99.693 38.6166 98.7976 37.7212 97.693 37.7212H86.4829C85.3783 37.7212 84.4829 38.6166 84.4829 39.7212V233.978C84.4829 235.083 85.3783 235.978 86.4829 235.978H97.693C98.7976 235.978 99.693 235.083 99.693 233.978Z" fill="#0A0A0A" stroke="black" stroke-width="3"/>
<path d="M44.2847 54.0002H732" stroke="black" stroke-width="3"/>
<path d="M44.2847 86.5586L730.37 87.14" stroke="black" stroke-width="3"/>
<path d="M44.2847 120.861H728.741" stroke="black" stroke-width="3"/>
<path d="M44.2847 220.281L732 220.281" stroke="black" stroke-width="3"/>
<path d="M44.2847 186.559L729.827 186.559" stroke="black" stroke-width="3"/>
<path d="M44.2847 152.838H728.741" stroke="black" stroke-width="3"/>
<path d="M180.089 37.7212V236.56" stroke="#B1AB97" stroke-width="6"/>
<path d="M708.913 37.7207V235.397" stroke="#B1AB97" stroke-width="6"/>
<path d="M620.368 37.7207V236.56" stroke="#B1AB97" stroke-width="6"/>
<path d="M531.28 37.7207V236.56" stroke="#B1AB97" stroke-width="6"/>
<path d="M444.909 37.7207V236.56" stroke="#B1AB97" stroke-width="6"/>
<path d="M356.364 37.7207V236.56" stroke="#B1AB97" stroke-width="6"/>
<path d="M266.733 37.7207V236.56" stroke="#B1AB97" stroke-width="6"/>
<ellipse cx="312.092" cy="137.722" rx="9.23472" ry="8.13959" fill="white"/>
<ellipse cx="488.095" cy="137.722" rx="9.23472" ry="8.13959" fill="white"/>
<ellipse cx="668.444" cy="137.722" rx="9.23472" ry="8.13959" fill="white"/>
<g filter="url(#filter0_d_120_1553)">
<path d="M6.63327 59.8608V42.4063H17.1674V44.2813H8.7469V50.179H16.6219V52.054H8.7469V57.9858H17.3037V59.8608H6.63327Z" fill="#0A0A0A"/>
</g>
<g filter="url(#filter1_d_120_1553)">
<path d="M138.997 0.545454V18H136.883V2.76136H136.781L132.52 5.59091V3.44318L136.883 0.545454H138.997Z" fill="#0A0A0A"/>
</g>
<g filter="url(#filter2_d_120_1553)">
<path d="M218.088 18V16.4659L223.85 10.1591C224.526 9.42045 225.082 8.77841 225.52 8.23295C225.957 7.68182 226.281 7.16477 226.492 6.68182C226.707 6.19318 226.815 5.68182 226.815 5.14773C226.815 4.53409 226.668 4.00284 226.372 3.55398C226.082 3.10511 225.685 2.75852 225.179 2.5142C224.673 2.26989 224.105 2.14773 223.475 2.14773C222.804 2.14773 222.219 2.28693 221.719 2.56534C221.225 2.83807 220.841 3.22159 220.568 3.71591C220.301 4.21023 220.168 4.78977 220.168 5.45454H218.156C218.156 4.43182 218.392 3.53409 218.864 2.76136C219.335 1.98864 219.977 1.38636 220.79 0.954545C221.608 0.522727 222.526 0.306818 223.543 0.306818C224.565 0.306818 225.472 0.522727 226.261 0.954545C227.051 1.38636 227.671 1.96875 228.119 2.7017C228.568 3.43466 228.793 4.25 228.793 5.14773C228.793 5.78977 228.676 6.41761 228.443 7.03125C228.216 7.6392 227.818 8.31818 227.25 9.06818C226.688 9.8125 225.906 10.7216 224.906 11.7955L220.986 15.9886V16.125H229.1V18H218.088Z" fill="#0A0A0A"/>
</g>
<g filter="url(#filter3_d_120_1553)">
<path d="M311.612 18.2386C310.487 18.2386 309.485 18.0455 308.604 17.6591C307.729 17.2727 307.033 16.7358 306.516 16.0483C306.004 15.3551 305.726 14.5511 305.681 13.6364H307.828C307.874 14.1989 308.067 14.6847 308.408 15.0938C308.749 15.4972 309.195 15.8097 309.746 16.0312C310.297 16.2528 310.908 16.3636 311.578 16.3636C312.328 16.3636 312.993 16.233 313.573 15.9716C314.152 15.7102 314.607 15.3466 314.936 14.8807C315.266 14.4148 315.431 13.875 315.431 13.2614C315.431 12.6193 315.271 12.054 314.953 11.5653C314.635 11.071 314.169 10.6847 313.556 10.4062C312.942 10.1278 312.192 9.98864 311.306 9.98864H309.908V8.11364H311.306C311.999 8.11364 312.607 7.98864 313.129 7.73864C313.658 7.48864 314.07 7.13636 314.365 6.68182C314.666 6.22727 314.817 5.69318 314.817 5.07954C314.817 4.48864 314.686 3.97443 314.425 3.53693C314.163 3.09943 313.794 2.75852 313.317 2.5142C312.845 2.26989 312.288 2.14773 311.646 2.14773C311.044 2.14773 310.476 2.25852 309.942 2.48011C309.413 2.69602 308.982 3.01136 308.646 3.42614C308.311 3.83523 308.129 4.32955 308.101 4.90909H306.056C306.09 3.99432 306.365 3.19318 306.882 2.50568C307.399 1.8125 308.075 1.27273 308.911 0.886364C309.752 0.5 310.675 0.306818 311.681 0.306818C312.76 0.306818 313.686 0.525568 314.459 0.963068C315.232 1.39489 315.825 1.96591 316.24 2.67614C316.655 3.38636 316.862 4.15341 316.862 4.97727C316.862 5.96023 316.604 6.7983 316.087 7.49148C315.575 8.18466 314.879 8.66477 313.999 8.93182V9.06818C315.101 9.25 315.962 9.71875 316.581 10.4744C317.2 11.2244 317.51 12.1534 317.51 13.2614C317.51 14.2102 317.252 15.0625 316.735 15.8182C316.223 16.5682 315.524 17.1591 314.638 17.5909C313.752 18.0227 312.743 18.2386 311.612 18.2386Z" fill="#0A0A0A"/>
</g>
<g filter="url(#filter4_d_120_1553)">
<path d="M395.421 14.4205V12.6818L403.092 0.545454H404.353V3.23864H403.501L397.705 12.4091V12.5455H408.035V14.4205H395.421ZM403.637 18V13.892V13.0824V0.545454H405.649V18H403.637Z" fill="#0A0A0A"/>
</g>
<g filter="url(#filter5_d_120_1553)">
<path d="M488.598 18.2386C487.598 18.2386 486.698 18.0398 485.897 17.642C485.096 17.2443 484.453 16.6989 483.971 16.0057C483.488 15.3125 483.223 14.5227 483.178 13.6364H485.223C485.303 14.4261 485.661 15.0795 486.297 15.5966C486.939 16.108 487.706 16.3636 488.598 16.3636C489.314 16.3636 489.951 16.196 490.507 15.8608C491.07 15.5256 491.51 15.0653 491.828 14.4801C492.152 13.8892 492.314 13.2216 492.314 12.4773C492.314 11.7159 492.147 11.0369 491.811 10.4403C491.482 9.83807 491.027 9.36364 490.448 9.01705C489.868 8.67045 489.206 8.49432 488.462 8.48864C487.928 8.48295 487.38 8.56534 486.817 8.7358C486.255 8.90057 485.792 9.11364 485.428 9.375L483.451 9.13636L484.507 0.545454H493.576V2.42045H486.28L485.667 7.56818H485.769C486.127 7.28409 486.576 7.0483 487.115 6.8608C487.655 6.6733 488.218 6.57955 488.803 6.57955C489.871 6.57955 490.823 6.83523 491.658 7.34659C492.499 7.85227 493.158 8.54545 493.635 9.42614C494.118 10.3068 494.36 11.3125 494.36 12.4432C494.36 13.5568 494.11 14.5511 493.61 15.4261C493.115 16.2955 492.434 16.983 491.564 17.4886C490.695 17.9886 489.706 18.2386 488.598 18.2386Z" fill="#0A0A0A"/>
</g>
<g filter="url(#filter6_d_120_1553)">
<path d="M575.667 18.2386C574.951 18.2273 574.235 18.0909 573.519 17.8295C572.803 17.5682 572.15 17.1278 571.559 16.5085C570.968 15.8835 570.494 15.0398 570.136 13.9773C569.778 12.9091 569.599 11.5682 569.599 9.95455C569.599 8.40909 569.744 7.03977 570.033 5.84659C570.323 4.64773 570.744 3.6392 571.295 2.82102C571.846 1.99716 572.511 1.37216 573.289 0.946022C574.073 0.519886 574.957 0.306818 575.94 0.306818C576.917 0.306818 577.786 0.502841 578.548 0.894886C579.315 1.28125 579.94 1.82102 580.423 2.5142C580.905 3.20739 581.218 4.00568 581.36 4.90909H579.28C579.087 4.125 578.712 3.47443 578.155 2.95739C577.599 2.44034 576.86 2.18182 575.94 2.18182C574.587 2.18182 573.522 2.76989 572.744 3.94602C571.971 5.12216 571.582 6.77273 571.576 8.89773H571.712C572.03 8.41477 572.408 8.00284 572.846 7.66193C573.289 7.31534 573.778 7.0483 574.312 6.8608C574.846 6.6733 575.411 6.57955 576.008 6.57955C577.008 6.57955 577.923 6.82955 578.752 7.32955C579.582 7.82386 580.246 8.50852 580.746 9.38352C581.246 10.2528 581.496 11.25 581.496 12.375C581.496 13.4545 581.255 14.4432 580.772 15.3409C580.289 16.233 579.61 16.9432 578.735 17.4716C577.866 17.9943 576.843 18.25 575.667 18.2386ZM575.667 16.3636C576.383 16.3636 577.025 16.1847 577.593 15.8267C578.167 15.4687 578.619 14.9886 578.948 14.3864C579.283 13.7841 579.451 13.1136 579.451 12.375C579.451 11.6534 579.289 10.9972 578.965 10.4062C578.647 9.80966 578.207 9.33523 577.644 8.98295C577.087 8.63068 576.451 8.45455 575.735 8.45455C575.195 8.45455 574.692 8.5625 574.226 8.77841C573.761 8.98864 573.351 9.27841 572.999 9.64773C572.653 10.017 572.38 10.4403 572.181 10.9176C571.982 11.3892 571.883 11.8864 571.883 12.4091C571.883 13.1023 572.045 13.75 572.369 14.3523C572.698 14.9545 573.147 15.4403 573.715 15.8097C574.289 16.179 574.94 16.3636 575.667 16.3636Z" fill="#0A0A0A"/>
</g>
<g filter="url(#filter7_d_120_1553)">
<path d="M664.483 18L672.29 2.55682V2.42045H663.29V0.545454H674.472V2.52273L666.699 18H664.483Z" fill="#0A0A0A"/>
</g>
<g filter="url(#filter8_d_120_1553)">
<path d="M6.00045 93.582V76.1275H12.1027C13.3186 76.1275 14.3215 76.3377 15.1113 76.7582C15.901 77.1729 16.4891 77.7326 16.8755 78.4371C17.2618 79.136 17.455 79.9116 17.455 80.7638C17.455 81.5138 17.3215 82.1332 17.0544 82.6218C16.7931 83.1104 16.4465 83.4968 16.0147 83.7809C15.5885 84.065 15.1255 84.2752 14.6255 84.4116V84.582C15.1595 84.6161 15.6965 84.8036 16.2363 85.1445C16.776 85.4854 17.2277 85.9741 17.5914 86.6104C17.955 87.2468 18.1368 88.0252 18.1368 88.9457C18.1368 89.8207 17.938 90.6076 17.5402 91.3065C17.1425 92.0053 16.5147 92.5593 15.6567 92.9684C14.7987 93.3775 13.6823 93.582 12.3073 93.582H6.00045ZM8.11409 91.707H12.3073C13.688 91.707 14.6681 91.44 15.2476 90.9059C15.8328 90.3661 16.1255 89.7127 16.1255 88.9457C16.1255 88.3548 15.9749 87.8093 15.6738 87.3093C15.3726 86.8036 14.9436 86.4002 14.3868 86.0991C13.83 85.7923 13.1709 85.6388 12.4095 85.6388H8.11409V91.707ZM8.11409 83.7979H12.0345C12.6709 83.7979 13.2448 83.6729 13.7561 83.4229C14.2732 83.1729 14.6823 82.8207 14.9834 82.3661C15.2902 81.9116 15.4436 81.3775 15.4436 80.7638C15.4436 79.9968 15.1766 79.3462 14.6425 78.8121C14.1084 78.2724 13.2618 78.0025 12.1027 78.0025H8.11409V83.7979Z" fill="black"/>
</g>
<g filter="url(#filter9_d_120_1553)">
<path d="M16.819 115.303C16.6315 114.729 16.3843 114.215 16.0775 113.76C15.7764 113.3 15.4156 112.908 14.9951 112.584C14.5804 112.26 14.1088 112.013 13.5804 111.843C13.0519 111.672 12.4724 111.587 11.8417 111.587C10.8076 111.587 9.86729 111.854 9.0207 112.388C8.17411 112.922 7.50081 113.709 7.00081 114.749C6.50081 115.789 6.25081 117.064 6.25081 118.576C6.25081 120.087 6.50365 121.363 7.00933 122.402C7.51501 123.442 8.19967 124.229 9.06331 124.763C9.92695 125.297 10.8985 125.564 11.9781 125.564C12.9781 125.564 13.8588 125.351 14.6201 124.925C15.3872 124.493 15.9838 123.885 16.4099 123.101C16.8417 122.312 17.0576 121.383 17.0576 120.314L17.7054 120.451H12.4554V118.576H19.1031V120.451C19.1031 121.888 18.7963 123.138 18.1826 124.201C17.5747 125.263 16.7338 126.087 15.6599 126.672C14.5917 127.252 13.3644 127.542 11.9781 127.542C10.4326 127.542 9.07467 127.178 7.90422 126.451C6.73945 125.723 5.83036 124.689 5.17695 123.348C4.52922 122.008 4.20535 120.417 4.20535 118.576C4.20535 117.195 4.39001 115.954 4.75933 114.851C5.13433 113.743 5.66274 112.8 6.34456 112.022C7.02638 111.243 7.8332 110.647 8.76501 110.232C9.69683 109.817 10.7224 109.61 11.8417 109.61C12.7622 109.61 13.6201 109.749 14.4156 110.027C15.2167 110.3 15.9298 110.689 16.5548 111.195C17.1855 111.695 17.711 112.294 18.1315 112.993C18.5519 113.687 18.8417 114.456 19.0008 115.303H16.819Z" fill="black"/>
</g>
<g filter="url(#filter10_d_120_1553)">
<path d="M10.5665 162.187H5.18014V144.732H10.8051C12.4983 144.732 13.9472 145.082 15.1517 145.781C16.3563 146.474 17.2796 147.471 17.9216 148.772C18.5637 150.068 18.8847 151.619 18.8847 153.426C18.8847 155.244 18.5608 156.809 17.9131 158.122C17.2654 159.428 16.3222 160.434 15.0836 161.139C13.8449 161.838 12.3392 162.187 10.5665 162.187ZM7.29378 160.312H10.4301C11.8733 160.312 13.0693 160.034 14.0182 159.477C14.9671 158.92 15.6745 158.127 16.1404 157.099C16.6063 156.071 16.8392 154.846 16.8392 153.426C16.8392 152.017 16.6091 150.803 16.1489 149.786C15.6887 148.764 15.0012 147.98 14.0864 147.434C13.1716 146.883 12.0324 146.607 10.6688 146.607H7.29378V160.312Z" fill="black"/>
</g>
<g filter="url(#filter11_d_120_1553)">
<path d="M6.41168 192.42H4.19577L10.6049 174.965H12.7867L19.1958 192.42H16.9799L11.7639 177.726H11.6276L6.41168 192.42ZM7.22986 185.601H16.1617V187.476H7.22986V185.601Z" fill="black"/>
</g>
<g filter="url(#filter12_d_120_1553)">
<path d="M6.63327 222.653V205.198H17.1674V207.073H8.7469V212.971H16.6219V214.846H8.7469V220.778H17.3037V222.653H6.63327Z" fill="black"/>
</g>
<ellipse cx="311.549" cy="219.118" rx="16.2966" ry="16.2792" fill="#7DE2D1"/>
<g filter="url(#filter13_d_120_1553)">
<path d="M313.913 208.686V226.141H311.8V210.902H311.698L307.436 213.732V211.584L311.8 208.686H313.913Z" fill="white"/>
</g>
<g filter="url(#filter14_d_120_1553)">
<path d="M313.913 208.686V226.141H311.8V210.902H311.698L307.436 213.732V211.584L311.8 208.686H313.913Z" fill="white"/>
</g>
<ellipse cx="231.152" cy="180.745" rx="16.2966" ry="16.2792" fill="#7DE2D1"/>
<g filter="url(#filter15_d_120_1553)">
<path d="M225.693 187.769V186.234L231.455 179.928C232.131 179.189 232.687 178.547 233.125 178.002C233.562 177.45 233.886 176.933 234.097 176.45C234.312 175.962 234.42 175.45 234.42 174.916C234.42 174.303 234.273 173.771 233.977 173.323C233.687 172.874 233.29 172.527 232.784 172.283C232.278 172.038 231.71 171.916 231.08 171.916C230.409 171.916 229.824 172.055 229.324 172.334C228.83 172.607 228.446 172.99 228.173 173.484C227.906 173.979 227.773 174.558 227.773 175.223H225.761C225.761 174.2 225.997 173.303 226.469 172.53C226.94 171.757 227.582 171.155 228.395 170.723C229.213 170.291 230.131 170.075 231.148 170.075C232.17 170.075 233.077 170.291 233.866 170.723C234.656 171.155 235.276 171.737 235.724 172.47C236.173 173.203 236.398 174.019 236.398 174.916C236.398 175.558 236.281 176.186 236.048 176.8C235.821 177.408 235.423 178.087 234.855 178.837C234.293 179.581 233.511 180.49 232.511 181.564L228.591 185.757V185.894H236.705V187.769H225.693Z" fill="white"/>
</g>
<ellipse cx="311.549" cy="54.0004" rx="16.2966" ry="16.2792" fill="#7DE2D1"/>
<g filter="url(#filter16_d_120_1553)">
<path d="M305.247 57.4439V55.7053L312.917 43.5689H314.179V46.2621H313.326L307.531 55.4325V55.5689H317.861V57.4439H305.247ZM313.463 61.0234V56.9155V56.1058V43.5689H315.474V61.0234H313.463Z" fill="white"/>
</g>
<defs>
<filter id="filter0_d_120_1553" x="2.6333" y="42.4062" width="18.6704" height="25.4546" filterUnits="userSpaceOnUse" color-interpolation-filters="sRGB">
<feFlood flood-opacity="0" result="BackgroundImageFix"/>
<feColorMatrix in="SourceAlpha" type="matrix" values="0 0 0 0 0 0 0 0 0 0 0 0 0 0 0 0 0 0 127 0" result="hardAlpha"/>
<feOffset dy="4"/>
<feGaussianBlur stdDeviation="2"/>
<feComposite in2="hardAlpha" operator="out"/>
<feColorMatrix type="matrix" values="0 0 0 0 0 0 0 0 0 0 0 0 0 0 0 0 0 0 0.25 0"/>
<feBlend mode="normal" in2="BackgroundImageFix" result="effect1_dropShadow_120_1553"/>
<feBlend mode="normal" in="SourceGraphic" in2="effect1_dropShadow_120_1553" result="shape"/>
</filter>
<filter id="filter1_d_120_1553" x="128.52" y="0.54541" width="14.4775" height="25.4546" filterUnits="userSpaceOnUse" color-interpolation-filters="sRGB">
<feFlood flood-opacity="0" result="BackgroundImageFix"/>
<feColorMatrix in="SourceAlpha" type="matrix" values="0 0 0 0 0 0 0 0 0 0 0 0 0 0 0 0 0 0 127 0" result="hardAlpha"/>
<feOffset dy="4"/>
<feGaussianBlur stdDeviation="2"/>
<feComposite in2="hardAlpha" operator="out"/>
<feColorMatrix type="matrix" values="0 0 0 0 0 0 0 0 0 0 0 0 0 0 0 0 0 0 0.25 0"/>
<feBlend mode="normal" in2="BackgroundImageFix" result="effect1_dropShadow_120_1553"/>
<feBlend mode="normal" in="SourceGraphic" in2="effect1_dropShadow_120_1553" result="shape"/>
</filter>
<filter id="filter2_d_120_1553" x="214.088" y="0.306885" width="19.0112" height="25.6931" filterUnits="userSpaceOnUse" color-interpolation-filters="sRGB">
<feFlood flood-opacity="0" result="BackgroundImageFix"/>
<feColorMatrix in="SourceAlpha" type="matrix" values="0 0 0 0 0 0 0 0 0 0 0 0 0 0 0 0 0 0 127 0" result="hardAlpha"/>
<feOffset dy="4"/>
<feGaussianBlur stdDeviation="2"/>
<feComposite in2="hardAlpha" operator="out"/>
<feColorMatrix type="matrix" values="0 0 0 0 0 0 0 0 0 0 0 0 0 0 0 0 0 0 0.25 0"/>
<feBlend mode="normal" in2="BackgroundImageFix" result="effect1_dropShadow_120_1553"/>
<feBlend mode="normal" in="SourceGraphic" in2="effect1_dropShadow_120_1553" result="shape"/>
</filter>
<filter id="filter3_d_120_1553" x="301.681" y="0.306885" width="19.8296" height="25.9316" filterUnits="userSpaceOnUse" color-interpolation-filters="sRGB">
<feFlood flood-opacity="0" result="BackgroundImageFix"/>
<feColorMatrix in="SourceAlpha" type="matrix" values="0 0 0 0 0 0 0 0 0 0 0 0 0 0 0 0 0 0 127 0" result="hardAlpha"/>
<feOffset dy="4"/>
<feGaussianBlur stdDeviation="2"/>
<feComposite in2="hardAlpha" operator="out"/>
<feColorMatrix type="matrix" values="0 0 0 0 0 0 0 0 0 0 0 0 0 0 0 0 0 0 0.25 0"/>
<feBlend mode="normal" in2="BackgroundImageFix" result="effect1_dropShadow_120_1553"/>
<feBlend mode="normal" in="SourceGraphic" in2="effect1_dropShadow_120_1553" result="shape"/>
</filter>
<filter id="filter4_d_120_1553" x="391.421" y="0.54541" width="20.6133" height="25.4546" filterUnits="userSpaceOnUse" color-interpolation-filters="sRGB">
<feFlood flood-opacity="0" result="BackgroundImageFix"/>
<feColorMatrix in="SourceAlpha" type="matrix" values="0 0 0 0 0 0 0 0 0 0 0 0 0 0 0 0 0 0 127 0" result="hardAlpha"/>
<feOffset dy="4"/>
<feGaussianBlur stdDeviation="2"/>
<feComposite in2="hardAlpha" operator="out"/>
<feColorMatrix type="matrix" values="0 0 0 0 0 0 0 0 0 0 0 0 0 0 0 0 0 0 0.25 0"/>
<feBlend mode="normal" in2="BackgroundImageFix" result="effect1_dropShadow_120_1553"/>
<feBlend mode="normal" in="SourceGraphic" in2="effect1_dropShadow_120_1553" result="shape"/>
</filter>
<filter id="filter5_d_120_1553" x="479.178" y="0.54541" width="19.1816" height="25.6931" filterUnits="userSpaceOnUse" color-interpolation-filters="sRGB">
<feFlood flood-opacity="0" result="BackgroundImageFix"/>
<feColorMatrix in="SourceAlpha" type="matrix" values="0 0 0 0 0 0 0 0 0 0 0 0 0 0 0 0 0 0 127 0" result="hardAlpha"/>
<feOffset dy="4"/>
<feGaussianBlur stdDeviation="2"/>
<feComposite in2="hardAlpha" operator="out"/>
<feColorMatrix type="matrix" values="0 0 0 0 0 0 0 0 0 0 0 0 0 0 0 0 0 0 0.25 0"/>
<feBlend mode="normal" in2="BackgroundImageFix" result="effect1_dropShadow_120_1553"/>
<feBlend mode="normal" in="SourceGraphic" in2="effect1_dropShadow_120_1553" result="shape"/>
</filter>
<filter id="filter6_d_120_1553" x="565.599" y="0.306885" width="19.8975" height="25.9487" filterUnits="userSpaceOnUse" color-interpolation-filters="sRGB">
<feFlood flood-opacity="0" result="BackgroundImageFix"/>
<feColorMatrix in="SourceAlpha" type="matrix" values="0 0 0 0 0 0 0 0 0 0 0 0 0 0 0 0 0 0 127 0" result="hardAlpha"/>
<feOffset dy="4"/>
<feGaussianBlur stdDeviation="2"/>
<feComposite in2="hardAlpha" operator="out"/>
<feColorMatrix type="matrix" values="0 0 0 0 0 0 0 0 0 0 0 0 0 0 0 0 0 0 0.25 0"/>
<feBlend mode="normal" in2="BackgroundImageFix" result="effect1_dropShadow_120_1553"/>
<feBlend mode="normal" in="SourceGraphic" in2="effect1_dropShadow_120_1553" result="shape"/>
</filter>
<filter id="filter7_d_120_1553" x="659.29" y="0.54541" width="19.1816" height="25.4546" filterUnits="userSpaceOnUse" color-interpolation-filters="sRGB">
<feFlood flood-opacity="0" result="BackgroundImageFix"/>
<feColorMatrix in="SourceAlpha" type="matrix" values="0 0 0 0 0 0 0 0 0 0 0 0 0 0 0 0 0 0 127 0" result="hardAlpha"/>
<feOffset dy="4"/>
<feGaussianBlur stdDeviation="2"/>
<feComposite in2="hardAlpha" operator="out"/>
<feColorMatrix type="matrix" values="0 0 0 0 0 0 0 0 0 0 0 0 0 0 0 0 0 0 0.25 0"/>
<feBlend mode="normal" in2="BackgroundImageFix" result="effect1_dropShadow_120_1553"/>
<feBlend mode="normal" in="SourceGraphic" in2="effect1_dropShadow_120_1553" result="shape"/>
</filter>
<filter id="filter8_d_120_1553" x="2.00049" y="76.1274" width="20.1362" height="25.4546" filterUnits="userSpaceOnUse" color-interpolation-filters="sRGB">
<feFlood flood-opacity="0" result="BackgroundImageFix"/>
<feColorMatrix in="SourceAlpha" type="matrix" values="0 0 0 0 0 0 0 0 0 0 0 0 0 0 0 0 0 0 127 0" result="hardAlpha"/>
<feOffset dy="4"/>
<feGaussianBlur stdDeviation="2"/>
<feComposite in2="hardAlpha" operator="out"/>
<feColorMatrix type="matrix" values="0 0 0 0 0 0 0 0 0 0 0 0 0 0 0 0 0 0 0.25 0"/>
<feBlend mode="normal" in2="BackgroundImageFix" result="effect1_dropShadow_120_1553"/>
<feBlend mode="normal" in="SourceGraphic" in2="effect1_dropShadow_120_1553" result="shape"/>
</filter>
<filter id="filter9_d_120_1553" x="0.205566" y="109.61" width="22.8975" height="25.9316" filterUnits="userSpaceOnUse" color-interpolation-filters="sRGB">
<feFlood flood-opacity="0" result="BackgroundImageFix"/>
<feColorMatrix in="SourceAlpha" type="matrix" values="0 0 0 0 0 0 0 0 0 0 0 0 0 0 0 0 0 0 127 0" result="hardAlpha"/>
<feOffset dy="4"/>
<feGaussianBlur stdDeviation="2"/>
<feComposite in2="hardAlpha" operator="out"/>
<feColorMatrix type="matrix" values="0 0 0 0 0 0 0 0 0 0 0 0 0 0 0 0 0 0 0.25 0"/>
<feBlend mode="normal" in2="BackgroundImageFix" result="effect1_dropShadow_120_1553"/>
<feBlend mode="normal" in="SourceGraphic" in2="effect1_dropShadow_120_1553" result="shape"/>
</filter>
<filter id="filter10_d_120_1553" x="1.18018" y="144.732" width="21.7046" height="25.4546" filterUnits="userSpaceOnUse" color-interpolation-filters="sRGB">
<feFlood flood-opacity="0" result="BackgroundImageFix"/>
<feColorMatrix in="SourceAlpha" type="matrix" values="0 0 0 0 0 0 0 0 0 0 0 0 0 0 0 0 0 0 127 0" result="hardAlpha"/>
<feOffset dy="4"/>
<feGaussianBlur stdDeviation="2"/>
<feComposite in2="hardAlpha" operator="out"/>
<feColorMatrix type="matrix" values="0 0 0 0 0 0 0 0 0 0 0 0 0 0 0 0 0 0 0.25 0"/>
<feBlend mode="normal" in2="BackgroundImageFix" result="effect1_dropShadow_120_1553"/>
<feBlend mode="normal" in="SourceGraphic" in2="effect1_dropShadow_120_1553" result="shape"/>
</filter>
<filter id="filter11_d_120_1553" x="0.195801" y="174.965" width="23" height="25.4546" filterUnits="userSpaceOnUse" color-interpolation-filters="sRGB">
<feFlood flood-opacity="0" result="BackgroundImageFix"/>
<feColorMatrix in="SourceAlpha" type="matrix" values="0 0 0 0 0 0 0 0 0 0 0 0 0 0 0 0 0 0 127 0" result="hardAlpha"/>
<feOffset dy="4"/>
<feGaussianBlur stdDeviation="2"/>
<feComposite in2="hardAlpha" operator="out"/>
<feColorMatrix type="matrix" values="0 0 0 0 0 0 0 0 0 0 0 0 0 0 0 0 0 0 0.25 0"/>
<feBlend mode="normal" in2="BackgroundImageFix" result="effect1_dropShadow_120_1553"/>
<feBlend mode="normal" in="SourceGraphic" in2="effect1_dropShadow_120_1553" result="shape"/>
</filter>
<filter id="filter12_d_120_1553" x="2.6333" y="205.198" width="18.6704" height="25.4546" filterUnits="userSpaceOnUse" color-interpolation-filters="sRGB">
<feFlood flood-opacity="0" result="BackgroundImageFix"/>
<feColorMatrix in="SourceAlpha" type="matrix" values="0 0 0 0 0 0 0 0 0 0 0 0 0 0 0 0 0 0 127 0" result="hardAlpha"/>
<feOffset dy="4"/>
<feGaussianBlur stdDeviation="2"/>
<feComposite in2="hardAlpha" operator="out"/>
<feColorMatrix type="matrix" values="0 0 0 0 0 0 0 0 0 0 0 0 0 0 0 0 0 0 0.25 0"/>
<feBlend mode="normal" in2="BackgroundImageFix" result="effect1_dropShadow_120_1553"/>
<feBlend mode="normal" in="SourceGraphic" in2="effect1_dropShadow_120_1553" result="shape"/>
</filter>
<filter id="filter13_d_120_1553" x="303.436" y="208.686" width="14.4775" height="25.4546" filterUnits="userSpaceOnUse" color-interpolation-filters="sRGB">
<feFlood flood-opacity="0" result="BackgroundImageFix"/>
<feColorMatrix in="SourceAlpha" type="matrix" values="0 0 0 0 0 0 0 0 0 0 0 0 0 0 0 0 0 0 127 0" result="hardAlpha"/>
<feOffset dy="4"/>
<feGaussianBlur stdDeviation="2"/>
<feComposite in2="hardAlpha" operator="out"/>
<feColorMatrix type="matrix" values="0 0 0 0 0 0 0 0 0 0 0 0 0 0 0 0 0 0 0.25 0"/>
<feBlend mode="normal" in2="BackgroundImageFix" result="effect1_dropShadow_120_1553"/>
<feBlend mode="normal" in="SourceGraphic" in2="effect1_dropShadow_120_1553" result="shape"/>
</filter>
<filter id="filter14_d_120_1553" x="303.436" y="208.686" width="14.4775" height="25.4546" filterUnits="userSpaceOnUse" color-interpolation-filters="sRGB">
<feFlood flood-opacity="0" result="BackgroundImageFix"/>
<feColorMatrix in="SourceAlpha" type="matrix" values="0 0 0 0 0 0 0 0 0 0 0 0 0 0 0 0 0 0 127 0" result="hardAlpha"/>
<feOffset dy="4"/>
<feGaussianBlur stdDeviation="2"/>
<feComposite in2="hardAlpha" operator="out"/>
<feColorMatrix type="matrix" values="0 0 0 0 0 0 0 0 0 0 0 0 0 0 0 0 0 0 0.25 0"/>
<feBlend mode="normal" in2="BackgroundImageFix" result="effect1_dropShadow_120_1553"/>
<feBlend mode="normal" in="SourceGraphic" in2="effect1_dropShadow_120_1553" result="shape"/>
</filter>
<filter id="filter15_d_120_1553" x="221.693" y="170.075" width="19.0112" height="25.6931" filterUnits="userSpaceOnUse" color-interpolation-filters="sRGB">
<feFlood flood-opacity="0" result="BackgroundImageFix"/>
<feColorMatrix in="SourceAlpha" type="matrix" values="0 0 0 0 0 0 0 0 0 0 0 0 0 0 0 0 0 0 127 0" result="hardAlpha"/>
<feOffset dy="4"/>
<feGaussianBlur stdDeviation="2"/>
<feComposite in2="hardAlpha" operator="out"/>
<feColorMatrix type="matrix" values="0 0 0 0 0 0 0 0 0 0 0 0 0 0 0 0 0 0 0.25 0"/>
<feBlend mode="normal" in2="BackgroundImageFix" result="effect1_dropShadow_120_1553"/>
<feBlend mode="normal" in="SourceGraphic" in2="effect1_dropShadow_120_1553" result="shape"/>
</filter>
<filter id="filter16_d_120_1553" x="301.247" y="43.5688" width="20.6133" height="25.4546" filterUnits="userSpaceOnUse" color-interpolation-filters="sRGB">
<feFlood flood-opacity="0" result="BackgroundImageFix"/>
<feColorMatrix in="SourceAlpha" type="matrix" values="0 0 0 0 0 0 0 0 0 0 0 0 0 0 0 0 0 0 127 0" result="hardAlpha"/>
<feOffset dy="4"/>
<feGaussianBlur stdDeviation="2"/>
<feComposite in2="hardAlpha" operator="out"/>
<feColorMatrix type="matrix" values="0 0 0 0 0 0 0 0 0 0 0 0 0 0 0 0 0 0 0.25 0"/>
<feBlend mode="normal" in2="BackgroundImageFix" result="effect1_dropShadow_120_1553"/>
<feBlend mode="normal" in="SourceGraphic" in2="effect1_dropShadow_120_1553" result="shape"/>
</filter>
</defs>
</svg>
